<?xml version="1.0" encoding="utf-8" standalone="no"?>
<!DOCTYPE svg PUBLIC "-//W3C//DTD SVG 1.1//EN"
  "http://www.w3.org/Graphics/SVG/1.1/DTD/svg11.dtd">
<svg xmlns:xlink="http://www.w3.org/1999/xlink" width="734.4pt" height="605.518125pt" viewBox="0 0 734.4 605.518125" xmlns="http://www.w3.org/2000/svg" version="1.1">
 <metadata>
  <rdf:RDF xmlns:dc="http://purl.org/dc/elements/1.1/" xmlns:cc="http://creativecommons.org/ns#" xmlns:rdf="http://www.w3.org/1999/02/22-rdf-syntax-ns#">
   <cc:Work>
    <dc:type rdf:resource="http://purl.org/dc/dcmitype/StillImage"/>
    <dc:date>2024-05-12T21:23:32.768123</dc:date>
    <dc:format>image/svg+xml</dc:format>
    <dc:creator>
     <cc:Agent>
      <dc:title>Matplotlib v3.8.4, https://matplotlib.org/</dc:title>
     </cc:Agent>
    </dc:creator>
   </cc:Work>
  </rdf:RDF>
 </metadata>
 <defs>
  <style type="text/css">*{stroke-linejoin: round; stroke-linecap: butt}</style>
 </defs>
 <g id="figure_1">
  <g id="patch_1">
   <path d="M 0 605.518125 
L 734.4 605.518125 
L 734.4 0 
L 0 0 
z
" style="fill: #ffffff"/>
  </g>
  <g id="axes_1">
   <g id="LineCollection_1">
    <path d="M 436.912756 96.777724 
L 69.679339 270.726478 
" clip-path="url(#pc48c969bcb)" style="fill: none; stroke: #0000ff; stroke-width: 3.9375"/>
    <path d="M 617.051661 167.516833 
L 509.668848 81.333994 
" clip-path="url(#pc48c969bcb)" style="fill: none; stroke: #0000ff; stroke-width: 2.81101"/>
    <path d="M 617.051661 167.516833 
L 641.650404 228.98445 
" clip-path="url(#pc48c969bcb)" style="fill: none; stroke: #0000ff; stroke-width: 3.018316"/>
    <path d="M 90.133651 346.754489 
L 137.648755 158.811963 
" clip-path="url(#pc48c969bcb)" style="fill: none; stroke: #0000ff; stroke-width: 3.782361"/>
    <path d="M 524.904341 473.69748 
L 103.044073 230.637761 
" clip-path="url(#pc48c969bcb)" style="fill: none; stroke: #0000ff; stroke-width: 3.565567"/>
    <path d="M 299.096517 491.639977 
L 463.906882 535.028038 
" clip-path="url(#pc48c969bcb)" style="fill: none; stroke: #0000ff; stroke-width: 2.743742"/>
    <path d="M 638.364913 442.695068 
L 659.055715 296.659463 
" clip-path="url(#pc48c969bcb)" style="fill: none; stroke: #0000ff; stroke-width: 3.883064"/>
    <path d="M 232.663789 510.677251 
L 419.053862 477.22911 
" clip-path="url(#pc48c969bcb)" style="fill: none; stroke: #0000ff; stroke-width: 3.094949"/>
    <path d="M 177.69392 346.049422 
L 162.229024 510.514448 
" clip-path="url(#pc48c969bcb)" style="fill: none; stroke: #0000ff; stroke-width: 3.404762"/>
    <path d="M 398.516534 112.176009 
L 664.720661 375.060063 
" clip-path="url(#pc48c969bcb)" style="fill: none; stroke: #0000ff; stroke-width: 3.558824"/>
    <path d="M 340.453998 548.334654 
L 298.688446 111.872192 
" clip-path="url(#pc48c969bcb)" style="fill: none; stroke: #0000ff; stroke-width: 2.702341"/>
    <path d="M 664.720661 375.060063 
L 162.229024 510.514448 
" clip-path="url(#pc48c969bcb)" style="fill: none; stroke: #0000ff; stroke-width: 3.558824"/>
    <path d="M 210.90339 132.155154 
L 546.937535 320.306198 
" clip-path="url(#pc48c969bcb)" style="fill: none; stroke: #0000ff; stroke-width: 3.063779"/>
    <path d="M 225.130065 72.301596 
L 116.699852 413.161415 
" clip-path="url(#pc48c969bcb)" style="fill: none; stroke: #0000ff; stroke-width: 2.660297"/>
    <path d="M 137.648755 158.811963 
L 583.835699 99.509775 
" clip-path="url(#pc48c969bcb)" style="fill: none; stroke: #0000ff; stroke-width: 3.857785"/>
   </g>
   <g id="PathCollection_1">
    <path d="M 436.912756 99.979286 
C 437.76182 99.979286 438.576223 99.641949 439.176602 99.04157 
C 439.776981 98.441191 440.114318 97.626788 440.114318 96.777724 
C 440.114318 95.92866 439.776981 95.114257 439.176602 94.513878 
C 438.576223 93.913498 437.76182 93.576162 436.912756 93.576162 
C 436.063692 93.576162 435.249288 93.913498 434.648909 94.513878 
C 434.04853 95.114257 433.711194 95.92866 433.711194 96.777724 
C 433.711194 97.626788 434.04853 98.441191 434.648909 99.04157 
C 435.249288 99.641949 436.063692 99.979286 436.912756 99.979286 
z
" clip-path="url(#pc48c969bcb)" style="fill: #87ceeb; stroke: #000000"/>
    <path d="M 617.051661 170.016833 
C 617.714669 170.016833 618.350611 169.753417 618.819428 169.2846 
C 619.288245 168.815782 619.551661 168.179841 619.551661 167.516833 
C 619.551661 166.853825 619.288245 166.217883 618.819428 165.749066 
C 618.350611 165.280249 617.714669 165.016833 617.051661 165.016833 
C 616.388653 165.016833 615.752711 165.280249 615.283894 165.749066 
C 614.815077 166.217883 614.551661 166.853825 614.551661 167.516833 
C 614.551661 168.179841 614.815077 168.815782 615.283894 169.2846 
C 615.752711 169.753417 616.388653 170.016833 617.051661 170.016833 
z
" clip-path="url(#pc48c969bcb)" style="fill: #87ceeb; stroke: #000000"/>
    <path d="M 90.133651 349.254489 
C 90.796659 349.254489 91.432601 348.991073 91.901418 348.522256 
C 92.370235 348.053438 92.633651 347.417496 92.633651 346.754489 
C 92.633651 346.091481 92.370235 345.455539 91.901418 344.986722 
C 91.432601 344.517904 90.796659 344.254489 90.133651 344.254489 
C 89.470643 344.254489 88.834701 344.517904 88.365884 344.986722 
C 87.897067 345.455539 87.633651 346.091481 87.633651 346.754489 
C 87.633651 347.417496 87.897067 348.053438 88.365884 348.522256 
C 88.834701 348.991073 89.470643 349.254489 90.133651 349.254489 
z
" clip-path="url(#pc48c969bcb)" style="fill: #87ceeb; stroke: #000000"/>
    <path d="M 524.904341 478.162623 
C 526.088511 478.162623 527.22434 477.692147 528.061674 476.854813 
C 528.899009 476.017479 529.369484 474.88165 529.369484 473.69748 
C 529.369484 472.513311 528.899009 471.377482 528.061674 470.540148 
C 527.22434 469.702813 526.088511 469.232338 524.904341 469.232338 
C 523.720172 469.232338 522.584343 469.702813 521.747009 470.540148 
C 520.909674 471.377482 520.439199 472.513311 520.439199 473.69748 
C 520.439199 474.88165 520.909674 476.017479 521.747009 476.854813 
C 522.584343 477.692147 523.720172 478.162623 524.904341 478.162623 
z
" clip-path="url(#pc48c969bcb)" style="fill: #87ceeb; stroke: #000000"/>
    <path d="M 299.096517 504.570077 
C 302.52562 504.570077 305.814737 503.20768 308.239479 500.782939 
C 310.664221 498.358197 312.026618 495.06908 312.026618 491.639977 
C 312.026618 488.210874 310.664221 484.921757 308.239479 482.497015 
C 305.814737 480.072273 302.52562 478.709876 299.096517 478.709876 
C 295.667415 478.709876 292.378297 480.072273 289.953556 482.497015 
C 287.528814 484.921757 286.166417 488.210874 286.166417 491.639977 
C 286.166417 495.06908 287.528814 498.358197 289.953556 500.782939 
C 292.378297 503.20768 295.667415 504.570077 299.096517 504.570077 
z
" clip-path="url(#pc48c969bcb)" style="fill: #87ceeb; stroke: #000000"/>
    <path d="M 638.364913 445.195068 
C 639.027921 445.195068 639.663863 444.931652 640.13268 444.462835 
C 640.601497 443.994017 640.864913 443.358075 640.864913 442.695068 
C 640.864913 442.03206 640.601497 441.396118 640.13268 440.927301 
C 639.663863 440.458483 639.027921 440.195068 638.364913 440.195068 
C 637.701905 440.195068 637.065963 440.458483 636.597146 440.927301 
C 636.128329 441.396118 635.864913 442.03206 635.864913 442.695068 
C 635.864913 443.358075 636.128329 443.994017 636.597146 444.462835 
C 637.065963 444.931652 637.701905 445.195068 638.364913 445.195068 
z
" clip-path="url(#pc48c969bcb)" style="fill: #87ceeb; stroke: #000000"/>
    <path d="M 509.668848 96.246238 
C 513.623622 96.246238 517.41695 94.67499 520.213397 91.878543 
C 523.009844 89.082096 524.581092 85.288767 524.581092 81.333994 
C 524.581092 77.379221 523.009844 73.585893 520.213397 70.789446 
C 517.41695 67.992999 513.623622 66.421751 509.668848 66.421751 
C 505.714075 66.421751 501.920747 67.992999 499.1243 70.789446 
C 496.327853 73.585893 494.756605 77.379221 494.756605 81.333994 
C 494.756605 85.288767 496.327853 89.082096 499.1243 91.878543 
C 501.920747 94.67499 505.714075 96.246238 509.668848 96.246238 
z
" clip-path="url(#pc48c969bcb)" style="fill: #87ceeb; stroke: #000000"/>
    <path d="M 103.044073 233.137761 
C 103.707081 233.137761 104.343023 232.874345 104.81184 232.405528 
C 105.280658 231.936711 105.544073 231.300769 105.544073 230.637761 
C 105.544073 229.974753 105.280658 229.338811 104.81184 228.869994 
C 104.343023 228.401177 103.707081 228.137761 103.044073 228.137761 
C 102.381066 228.137761 101.745124 228.401177 101.276306 228.869994 
C 100.807489 229.338811 100.544073 229.974753 100.544073 230.637761 
C 100.544073 231.300769 100.807489 231.936711 101.276306 232.405528 
C 101.745124 232.874345 102.381066 233.137761 103.044073 233.137761 
z
" clip-path="url(#pc48c969bcb)" style="fill: #87ceeb; stroke: #000000"/>
    <path d="M 232.663789 513.494608 
C 233.41096 513.494608 234.12763 513.197753 234.655961 512.669423 
C 235.184291 512.141093 235.481145 511.424423 235.481145 510.677251 
C 235.481145 509.930079 235.184291 509.213409 234.655961 508.685079 
C 234.12763 508.156748 233.41096 507.859894 232.663789 507.859894 
C 231.916617 507.859894 231.199947 508.156748 230.671616 508.685079 
C 230.143286 509.213409 229.846432 509.930079 229.846432 510.677251 
C 229.846432 511.424423 230.143286 512.141093 230.671616 512.669423 
C 231.199947 513.197753 231.916617 513.494608 232.663789 513.494608 
z
" clip-path="url(#pc48c969bcb)" style="fill: #87ceeb; stroke: #000000"/>
    <path d="M 177.69392 349.289792 
C 178.553276 349.289792 179.377551 348.948366 179.985208 348.34071 
C 180.592865 347.733053 180.934291 346.908778 180.934291 346.049422 
C 180.934291 345.190065 180.592865 344.36579 179.985208 343.758134 
C 179.377551 343.150477 178.553276 342.809051 177.69392 342.809051 
C 176.834564 342.809051 176.010289 343.150477 175.402632 343.758134 
C 174.794976 344.36579 174.45355 345.190065 174.45355 346.049422 
C 174.45355 346.908778 174.794976 347.733053 175.402632 348.34071 
C 176.010289 348.948366 176.834564 349.289792 177.69392 349.289792 
z
" clip-path="url(#pc48c969bcb)" style="fill: #87ceeb; stroke: #000000"/>
    <path d="M 463.906882 537.528038 
C 464.569889 537.528038 465.205831 537.264622 465.674649 536.795805 
C 466.143466 536.326988 466.406882 535.691046 466.406882 535.028038 
C 466.406882 534.36503 466.143466 533.729089 465.674649 533.260271 
C 465.205831 532.791454 464.569889 532.528038 463.906882 532.528038 
C 463.243874 532.528038 462.607932 532.791454 462.139115 533.260271 
C 461.670297 533.729089 461.406882 534.36503 461.406882 535.028038 
C 461.406882 535.691046 461.670297 536.326988 462.139115 536.795805 
C 462.607932 537.264622 463.243874 537.528038 463.906882 537.528038 
z
" clip-path="url(#pc48c969bcb)" style="fill: #87ceeb; stroke: #000000"/>
    <path d="M 398.516534 114.676009 
C 399.179542 114.676009 399.815484 114.412593 400.284301 113.943776 
C 400.753118 113.474959 401.016534 112.839017 401.016534 112.176009 
C 401.016534 111.513001 400.753118 110.877059 400.284301 110.408242 
C 399.815484 109.939425 399.179542 109.676009 398.516534 109.676009 
C 397.853526 109.676009 397.217584 109.939425 396.748767 110.408242 
C 396.27995 110.877059 396.016534 111.513001 396.016534 112.176009 
C 396.016534 112.839017 396.27995 113.474959 396.748767 113.943776 
C 397.217584 114.412593 397.853526 114.676009 398.516534 114.676009 
z
" clip-path="url(#pc48c969bcb)" style="fill: #87ceeb; stroke: #000000"/>
    <path d="M 340.453998 554.412277 
C 342.065802 554.412277 343.611808 553.7719 344.751526 552.632182 
C 345.891244 551.492464 346.531621 549.946458 346.531621 548.334654 
C 346.531621 546.722849 345.891244 545.176843 344.751526 544.037126 
C 343.611808 542.897408 342.065802 542.257031 340.453998 542.257031 
C 338.842193 542.257031 337.296187 542.897408 336.156469 544.037126 
C 335.016752 545.176843 334.376375 546.722849 334.376375 548.334654 
C 334.376375 549.946458 335.016752 551.492464 336.156469 552.632182 
C 337.296187 553.7719 338.842193 554.412277 340.453998 554.412277 
z
" clip-path="url(#pc48c969bcb)" style="fill: #87ceeb; stroke: #000000"/>
    <path d="M 664.720661 377.975539 
C 665.493854 377.975539 666.235484 377.668346 666.782214 377.121616 
C 667.328944 376.574886 667.636137 375.833256 667.636137 375.060063 
C 667.636137 374.28687 667.328944 373.54524 666.782214 372.99851 
C 666.235484 372.45178 665.493854 372.144587 664.720661 372.144587 
C 663.947468 372.144587 663.205839 372.45178 662.659108 372.99851 
C 662.112378 373.54524 661.805185 374.28687 661.805185 375.060063 
C 661.805185 375.833256 662.112378 376.574886 662.659108 377.121616 
C 663.205839 377.668346 663.947468 377.975539 664.720661 377.975539 
z
" clip-path="url(#pc48c969bcb)" style="fill: #87ceeb; stroke: #000000"/>
    <path d="M 641.650404 233.300119 
C 642.794933 233.300119 643.892739 232.845393 644.702043 232.036089 
C 645.511347 231.226785 645.966073 230.128979 645.966073 228.98445 
C 645.966073 227.839921 645.511347 226.742115 644.702043 225.932811 
C 643.892739 225.123507 642.794933 224.668781 641.650404 224.668781 
C 640.505875 224.668781 639.408069 225.123507 638.598765 225.932811 
C 637.789461 226.742115 637.334735 227.839921 637.334735 228.98445 
C 637.334735 230.128979 637.789461 231.226785 638.598765 232.036089 
C 639.408069 232.845393 640.505875 233.300119 641.650404 233.300119 
z
" clip-path="url(#pc48c969bcb)" style="fill: #87ceeb; stroke: #000000"/>
    <path d="M 210.90339 134.655154 
C 211.566398 134.655154 212.202339 134.391739 212.671157 133.922921 
C 213.139974 133.454104 213.40339 132.818162 213.40339 132.155154 
C 213.40339 131.492147 213.139974 130.856205 212.671157 130.387387 
C 212.202339 129.91857 211.566398 129.655154 210.90339 129.655154 
C 210.240382 129.655154 209.60444 129.91857 209.135623 130.387387 
C 208.666806 130.856205 208.40339 131.492147 208.40339 132.155154 
C 208.40339 132.818162 208.666806 133.454104 209.135623 133.922921 
C 209.60444 134.391739 210.240382 134.655154 210.90339 134.655154 
z
" clip-path="url(#pc48c969bcb)" style="fill: #87ceeb; stroke: #000000"/>
    <path d="M 225.130065 74.801596 
C 225.793073 74.801596 226.429015 74.53818 226.897832 74.069363 
C 227.366649 73.600546 227.630065 72.964604 227.630065 72.301596 
C 227.630065 71.638588 227.366649 71.002646 226.897832 70.533829 
C 226.429015 70.065012 225.793073 69.801596 225.130065 69.801596 
C 224.467057 69.801596 223.831115 70.065012 223.362298 70.533829 
C 222.893481 71.002646 222.630065 71.638588 222.630065 72.301596 
C 222.630065 72.964604 222.893481 73.600546 223.362298 74.069363 
C 223.831115 74.53818 224.467057 74.801596 225.130065 74.801596 
z
" clip-path="url(#pc48c969bcb)" style="fill: #87ceeb; stroke: #000000"/>
    <path d="M 69.679339 273.226478 
C 70.342347 273.226478 70.978289 272.963062 71.447106 272.494245 
C 71.915923 272.025427 72.179339 271.389485 72.179339 270.726478 
C 72.179339 270.06347 71.915923 269.427528 71.447106 268.958711 
C 70.978289 268.489894 70.342347 268.226478 69.679339 268.226478 
C 69.016331 268.226478 68.380389 268.489894 67.911572 268.958711 
C 67.442755 269.427528 67.179339 270.06347 67.179339 270.726478 
C 67.179339 271.389485 67.442755 272.025427 67.911572 272.494245 
C 68.380389 272.963062 69.016331 273.226478 69.679339 273.226478 
z
" clip-path="url(#pc48c969bcb)" style="fill: #87ceeb; stroke: #000000"/>
    <path d="M 419.053862 479.72911 
C 419.71687 479.72911 420.352812 479.465694 420.821629 478.996876 
C 421.290447 478.528059 421.553862 477.892117 421.553862 477.22911 
C 421.553862 476.566102 421.290447 475.93016 420.821629 475.461343 
C 420.352812 474.992525 419.71687 474.72911 419.053862 474.72911 
C 418.390855 474.72911 417.754913 474.992525 417.286095 475.461343 
C 416.817278 475.93016 416.553862 476.566102 416.553862 477.22911 
C 416.553862 477.892117 416.817278 478.528059 417.286095 478.996876 
C 417.754913 479.465694 418.390855 479.72911 419.053862 479.72911 
z
" clip-path="url(#pc48c969bcb)" style="fill: #87ceeb; stroke: #000000"/>
    <path d="M 137.648755 162.184648 
C 138.543201 162.184648 139.401134 161.82928 140.033603 161.196811 
C 140.666072 160.564342 141.021439 159.70641 141.021439 158.811963 
C 141.021439 157.917517 140.666072 157.059584 140.033603 156.427115 
C 139.401134 155.794646 138.543201 155.439279 137.648755 155.439279 
C 136.754309 155.439279 135.896376 155.794646 135.263907 156.427115 
C 134.631438 157.059584 134.27607 157.917517 134.27607 158.811963 
C 134.27607 159.70641 134.631438 160.564342 135.263907 161.196811 
C 135.896376 161.82928 136.754309 162.184648 137.648755 162.184648 
z
" clip-path="url(#pc48c969bcb)" style="fill: #87ceeb; stroke: #000000"/>
    <path d="M 659.055715 299.617503 
C 659.840196 299.617503 660.592653 299.305825 661.147365 298.751113 
C 661.702077 298.196401 662.013755 297.443944 662.013755 296.659463 
C 662.013755 295.874982 661.702077 295.122525 661.147365 294.567813 
C 660.592653 294.013101 659.840196 293.701423 659.055715 293.701423 
C 658.271234 293.701423 657.518777 294.013101 656.964065 294.567813 
C 656.409353 295.122525 656.097675 295.874982 656.097675 296.659463 
C 656.097675 297.443944 656.409353 298.196401 656.964065 298.751113 
C 657.518777 299.305825 658.271234 299.617503 659.055715 299.617503 
z
" clip-path="url(#pc48c969bcb)" style="fill: #87ceeb; stroke: #000000"/>
    <path d="M 116.699852 416.515517 
C 117.589371 416.515517 118.442576 416.162108 119.071561 415.533124 
C 119.700545 414.904139 120.053954 414.050934 120.053954 413.161415 
C 120.053954 412.271897 119.700545 411.418691 119.071561 410.789707 
C 118.442576 410.160723 117.589371 409.807313 116.699852 409.807313 
C 115.810334 409.807313 114.957128 410.160723 114.328144 410.789707 
C 113.69916 411.418691 113.34575 412.271897 113.34575 413.161415 
C 113.34575 414.050934 113.69916 414.904139 114.328144 415.533124 
C 114.957128 416.162108 115.810334 416.515517 116.699852 416.515517 
z
" clip-path="url(#pc48c969bcb)" style="fill: #87ceeb; stroke: #000000"/>
    <path d="M 583.835699 102.928473 
C 584.742349 102.928473 585.611986 102.568258 586.253084 101.92716 
C 586.894182 101.286062 587.254398 100.416424 587.254398 99.509775 
C 587.254398 98.603125 586.894182 97.733488 586.253084 97.09239 
C 585.611986 96.451292 584.742349 96.091076 583.835699 96.091076 
C 582.92905 96.091076 582.059412 96.451292 581.418314 97.09239 
C 580.777216 97.733488 580.417001 98.603125 580.417001 99.509775 
C 580.417001 100.416424 580.777216 101.286062 581.418314 101.92716 
C 582.059412 102.568258 582.92905 102.928473 583.835699 102.928473 
z
" clip-path="url(#pc48c969bcb)" style="fill: #87ceeb; stroke: #000000"/>
    <path d="M 546.937535 326.981713 
C 548.707902 326.981713 550.405998 326.278339 551.657836 325.0265 
C 552.909675 323.774661 553.61305 322.076565 553.61305 320.306198 
C 553.61305 318.535831 552.909675 316.837735 551.657836 315.585896 
C 550.405998 314.334057 548.707902 313.630683 546.937535 313.630683 
C 545.167167 313.630683 543.469071 314.334057 542.217233 315.585896 
C 540.965394 316.837735 540.26202 318.535831 540.26202 320.306198 
C 540.26202 322.076565 540.965394 323.774661 542.217233 325.0265 
C 543.469071 326.278339 545.167167 326.981713 546.937535 326.981713 
z
" clip-path="url(#pc48c969bcb)" style="fill: #87ceeb; stroke: #000000"/>
    <path d="M 162.229024 514.637553 
C 163.322484 514.637553 164.371306 514.203117 165.144499 513.429923 
C 165.917693 512.65673 166.352129 511.607908 166.352129 510.514448 
C 166.352129 509.420987 165.917693 508.372165 165.144499 507.598972 
C 164.371306 506.825778 163.322484 506.391342 162.229024 506.391342 
C 161.135563 506.391342 160.086741 506.825778 159.313548 507.598972 
C 158.540354 508.372165 158.105918 509.420987 158.105918 510.514448 
C 158.105918 511.607908 158.540354 512.65673 159.313548 513.429923 
C 160.086741 514.203117 161.135563 514.637553 162.229024 514.637553 
z
" clip-path="url(#pc48c969bcb)" style="fill: #87ceeb; stroke: #000000"/>
    <path d="M 298.688446 114.372192 
C 299.351454 114.372192 299.987396 114.108776 300.456213 113.639959 
C 300.92503 113.171141 301.188446 112.535199 301.188446 111.872192 
C 301.188446 111.209184 300.92503 110.573242 300.456213 110.104425 
C 299.987396 109.635607 299.351454 109.372192 298.688446 109.372192 
C 298.025438 109.372192 297.389496 109.635607 296.920679 110.104425 
C 296.451862 110.573242 296.188446 111.209184 296.188446 111.872192 
C 296.188446 112.535199 296.451862 113.171141 296.920679 113.639959 
C 297.389496 114.108776 298.025438 114.372192 298.688446 114.372192 
z
" clip-path="url(#pc48c969bcb)" style="fill: #87ceeb; stroke: #000000"/>
   </g>
   <g id="text_1">
    <g clip-path="url(#pc48c969bcb)">
     <!-- Mosquito Nation -->
     <g transform="translate(388.071818 100.088974) scale(0.12 -0.12)">
      <defs>
       <path id="DejaVuSans-4d" d="M 628 4666 
L 1569 4666 
L 2759 1491 
L 3956 4666 
L 4897 4666 
L 4897 0 
L 4281 0 
L 4281 4097 
L 3078 897 
L 2444 897 
L 1241 4097 
L 1241 0 
L 628 0 
L 628 4666 
z
" transform="scale(0.015625)"/>
       <path id="DejaVuSans-6f" d="M 1959 3097 
Q 1497 3097 1228 2736 
Q 959 2375 959 1747 
Q 959 1119 1226 758 
Q 1494 397 1959 397 
Q 2419 397 2687 759 
Q 2956 1122 2956 1747 
Q 2956 2369 2687 2733 
Q 2419 3097 1959 3097 
z
M 1959 3584 
Q 2709 3584 3137 3096 
Q 3566 2609 3566 1747 
Q 3566 888 3137 398 
Q 2709 -91 1959 -91 
Q 1206 -91 779 398 
Q 353 888 353 1747 
Q 353 2609 779 3096 
Q 1206 3584 1959 3584 
z
" transform="scale(0.015625)"/>
       <path id="DejaVuSans-73" d="M 2834 3397 
L 2834 2853 
Q 2591 2978 2328 3040 
Q 2066 3103 1784 3103 
Q 1356 3103 1142 2972 
Q 928 2841 928 2578 
Q 928 2378 1081 2264 
Q 1234 2150 1697 2047 
L 1894 2003 
Q 2506 1872 2764 1633 
Q 3022 1394 3022 966 
Q 3022 478 2636 193 
Q 2250 -91 1575 -91 
Q 1294 -91 989 -36 
Q 684 19 347 128 
L 347 722 
Q 666 556 975 473 
Q 1284 391 1588 391 
Q 1994 391 2212 530 
Q 2431 669 2431 922 
Q 2431 1156 2273 1281 
Q 2116 1406 1581 1522 
L 1381 1569 
Q 847 1681 609 1914 
Q 372 2147 372 2553 
Q 372 3047 722 3315 
Q 1072 3584 1716 3584 
Q 2034 3584 2315 3537 
Q 2597 3491 2834 3397 
z
" transform="scale(0.015625)"/>
       <path id="DejaVuSans-71" d="M 947 1747 
Q 947 1113 1208 752 
Q 1469 391 1925 391 
Q 2381 391 2643 752 
Q 2906 1113 2906 1747 
Q 2906 2381 2643 2742 
Q 2381 3103 1925 3103 
Q 1469 3103 1208 2742 
Q 947 2381 947 1747 
z
M 2906 525 
Q 2725 213 2448 61 
Q 2172 -91 1784 -91 
Q 1150 -91 751 415 
Q 353 922 353 1747 
Q 353 2572 751 3078 
Q 1150 3584 1784 3584 
Q 2172 3584 2448 3432 
Q 2725 3281 2906 2969 
L 2906 3500 
L 3481 3500 
L 3481 -1331 
L 2906 -1331 
L 2906 525 
z
" transform="scale(0.015625)"/>
       <path id="DejaVuSans-75" d="M 544 1381 
L 544 3500 
L 1119 3500 
L 1119 1403 
Q 1119 906 1312 657 
Q 1506 409 1894 409 
Q 2359 409 2629 706 
Q 2900 1003 2900 1516 
L 2900 3500 
L 3475 3500 
L 3475 0 
L 2900 0 
L 2900 538 
Q 2691 219 2414 64 
Q 2138 -91 1772 -91 
Q 1169 -91 856 284 
Q 544 659 544 1381 
z
M 1991 3584 
L 1991 3584 
z
" transform="scale(0.015625)"/>
       <path id="DejaVuSans-69" d="M 603 3500 
L 1178 3500 
L 1178 0 
L 603 0 
L 603 3500 
z
M 603 4863 
L 1178 4863 
L 1178 4134 
L 603 4134 
L 603 4863 
z
" transform="scale(0.015625)"/>
       <path id="DejaVuSans-74" d="M 1172 4494 
L 1172 3500 
L 2356 3500 
L 2356 3053 
L 1172 3053 
L 1172 1153 
Q 1172 725 1289 603 
Q 1406 481 1766 481 
L 2356 481 
L 2356 0 
L 1766 0 
Q 1100 0 847 248 
Q 594 497 594 1153 
L 594 3053 
L 172 3053 
L 172 3500 
L 594 3500 
L 594 4494 
L 1172 4494 
z
" transform="scale(0.015625)"/>
       <path id="DejaVuSans-20" transform="scale(0.015625)"/>
       <path id="DejaVuSans-4e" d="M 628 4666 
L 1478 4666 
L 3547 763 
L 3547 4666 
L 4159 4666 
L 4159 0 
L 3309 0 
L 1241 3903 
L 1241 0 
L 628 0 
L 628 4666 
z
" transform="scale(0.015625)"/>
       <path id="DejaVuSans-61" d="M 2194 1759 
Q 1497 1759 1228 1600 
Q 959 1441 959 1056 
Q 959 750 1161 570 
Q 1363 391 1709 391 
Q 2188 391 2477 730 
Q 2766 1069 2766 1631 
L 2766 1759 
L 2194 1759 
z
M 3341 1997 
L 3341 0 
L 2766 0 
L 2766 531 
Q 2569 213 2275 61 
Q 1981 -91 1556 -91 
Q 1019 -91 701 211 
Q 384 513 384 1019 
Q 384 1609 779 1909 
Q 1175 2209 1959 2209 
L 2766 2209 
L 2766 2266 
Q 2766 2663 2505 2880 
Q 2244 3097 1772 3097 
Q 1472 3097 1187 3025 
Q 903 2953 641 2809 
L 641 3341 
Q 956 3463 1253 3523 
Q 1550 3584 1831 3584 
Q 2591 3584 2966 3190 
Q 3341 2797 3341 1997 
z
" transform="scale(0.015625)"/>
       <path id="DejaVuSans-6e" d="M 3513 2113 
L 3513 0 
L 2938 0 
L 2938 2094 
Q 2938 2591 2744 2837 
Q 2550 3084 2163 3084 
Q 1697 3084 1428 2787 
Q 1159 2491 1159 1978 
L 1159 0 
L 581 0 
L 581 3500 
L 1159 3500 
L 1159 2956 
Q 1366 3272 1645 3428 
Q 1925 3584 2291 3584 
Q 2894 3584 3203 3211 
Q 3513 2838 3513 2113 
z
" transform="scale(0.015625)"/>
      </defs>
      <use xlink:href="#DejaVuSans-4d"/>
      <use xlink:href="#DejaVuSans-6f" x="86.279297"/>
      <use xlink:href="#DejaVuSans-73" x="147.460938"/>
      <use xlink:href="#DejaVuSans-71" x="199.560547"/>
      <use xlink:href="#DejaVuSans-75" x="263.037109"/>
      <use xlink:href="#DejaVuSans-69" x="326.416016"/>
      <use xlink:href="#DejaVuSans-74" x="354.199219"/>
      <use xlink:href="#DejaVuSans-6f" x="393.408203"/>
      <use xlink:href="#DejaVuSans-20" x="454.589844"/>
      <use xlink:href="#DejaVuSans-4e" x="486.376953"/>
      <use xlink:href="#DejaVuSans-61" x="561.181641"/>
      <use xlink:href="#DejaVuSans-74" x="622.460938"/>
      <use xlink:href="#DejaVuSans-69" x="661.669922"/>
      <use xlink:href="#DejaVuSans-6f" x="689.453125"/>
      <use xlink:href="#DejaVuSans-6e" x="750.634766"/>
     </g>
    </g>
   </g>
   <g id="text_2">
    <g clip-path="url(#pc48c969bcb)">
     <!-- States -->
     <g transform="translate(598.043849 170.828083) scale(0.12 -0.12)">
      <defs>
       <path id="DejaVuSans-53" d="M 3425 4513 
L 3425 3897 
Q 3066 4069 2747 4153 
Q 2428 4238 2131 4238 
Q 1616 4238 1336 4038 
Q 1056 3838 1056 3469 
Q 1056 3159 1242 3001 
Q 1428 2844 1947 2747 
L 2328 2669 
Q 3034 2534 3370 2195 
Q 3706 1856 3706 1288 
Q 3706 609 3251 259 
Q 2797 -91 1919 -91 
Q 1588 -91 1214 -16 
Q 841 59 441 206 
L 441 856 
Q 825 641 1194 531 
Q 1563 422 1919 422 
Q 2459 422 2753 634 
Q 3047 847 3047 1241 
Q 3047 1584 2836 1778 
Q 2625 1972 2144 2069 
L 1759 2144 
Q 1053 2284 737 2584 
Q 422 2884 422 3419 
Q 422 4038 858 4394 
Q 1294 4750 2059 4750 
Q 2388 4750 2728 4690 
Q 3069 4631 3425 4513 
z
" transform="scale(0.015625)"/>
       <path id="DejaVuSans-65" d="M 3597 1894 
L 3597 1613 
L 953 1613 
Q 991 1019 1311 708 
Q 1631 397 2203 397 
Q 2534 397 2845 478 
Q 3156 559 3463 722 
L 3463 178 
Q 3153 47 2828 -22 
Q 2503 -91 2169 -91 
Q 1331 -91 842 396 
Q 353 884 353 1716 
Q 353 2575 817 3079 
Q 1281 3584 2069 3584 
Q 2775 3584 3186 3129 
Q 3597 2675 3597 1894 
z
M 3022 2063 
Q 3016 2534 2758 2815 
Q 2500 3097 2075 3097 
Q 1594 3097 1305 2825 
Q 1016 2553 972 2059 
L 3022 2063 
z
" transform="scale(0.015625)"/>
      </defs>
      <use xlink:href="#DejaVuSans-53"/>
      <use xlink:href="#DejaVuSans-74" x="63.476562"/>
      <use xlink:href="#DejaVuSans-61" x="102.685547"/>
      <use xlink:href="#DejaVuSans-74" x="163.964844"/>
      <use xlink:href="#DejaVuSans-65" x="203.173828"/>
      <use xlink:href="#DejaVuSans-73" x="264.697266"/>
     </g>
    </g>
   </g>
   <g id="text_3">
    <g clip-path="url(#pc48c969bcb)">
     <!-- Veterans Affairs -->
     <g transform="translate(42.732713 350.065739) scale(0.12 -0.12)">
      <defs>
       <path id="DejaVuSans-56" d="M 1831 0 
L 50 4666 
L 709 4666 
L 2188 738 
L 3669 4666 
L 4325 4666 
L 2547 0 
L 1831 0 
z
" transform="scale(0.015625)"/>
       <path id="DejaVuSans-72" d="M 2631 2963 
Q 2534 3019 2420 3045 
Q 2306 3072 2169 3072 
Q 1681 3072 1420 2755 
Q 1159 2438 1159 1844 
L 1159 0 
L 581 0 
L 581 3500 
L 1159 3500 
L 1159 2956 
Q 1341 3275 1631 3429 
Q 1922 3584 2338 3584 
Q 2397 3584 2469 3576 
Q 2541 3569 2628 3553 
L 2631 2963 
z
" transform="scale(0.015625)"/>
       <path id="DejaVuSans-41" d="M 2188 4044 
L 1331 1722 
L 3047 1722 
L 2188 4044 
z
M 1831 4666 
L 2547 4666 
L 4325 0 
L 3669 0 
L 3244 1197 
L 1141 1197 
L 716 0 
L 50 0 
L 1831 4666 
z
" transform="scale(0.015625)"/>
       <path id="DejaVuSans-66" d="M 2375 4863 
L 2375 4384 
L 1825 4384 
Q 1516 4384 1395 4259 
Q 1275 4134 1275 3809 
L 1275 3500 
L 2222 3500 
L 2222 3053 
L 1275 3053 
L 1275 0 
L 697 0 
L 697 3053 
L 147 3053 
L 147 3500 
L 697 3500 
L 697 3744 
Q 697 4328 969 4595 
Q 1241 4863 1831 4863 
L 2375 4863 
z
" transform="scale(0.015625)"/>
      </defs>
      <use xlink:href="#DejaVuSans-56"/>
      <use xlink:href="#DejaVuSans-65" x="60.658203"/>
      <use xlink:href="#DejaVuSans-74" x="122.181641"/>
      <use xlink:href="#DejaVuSans-65" x="161.390625"/>
      <use xlink:href="#DejaVuSans-72" x="222.914062"/>
      <use xlink:href="#DejaVuSans-61" x="264.027344"/>
      <use xlink:href="#DejaVuSans-6e" x="325.306641"/>
      <use xlink:href="#DejaVuSans-73" x="388.685547"/>
      <use xlink:href="#DejaVuSans-20" x="440.785156"/>
      <use xlink:href="#DejaVuSans-41" x="472.572266"/>
      <use xlink:href="#DejaVuSans-66" x="537.355469"/>
      <use xlink:href="#DejaVuSans-66" x="572.560547"/>
      <use xlink:href="#DejaVuSans-61" x="607.765625"/>
      <use xlink:href="#DejaVuSans-69" x="669.044922"/>
      <use xlink:href="#DejaVuSans-72" x="696.828125"/>
      <use xlink:href="#DejaVuSans-73" x="737.941406"/>
     </g>
    </g>
   </g>
   <g id="text_4">
    <g clip-path="url(#pc48c969bcb)">
     <!-- Honduras -->
     <g transform="translate(496.037779 477.00873) scale(0.12 -0.12)">
      <defs>
       <path id="DejaVuSans-48" d="M 628 4666 
L 1259 4666 
L 1259 2753 
L 3553 2753 
L 3553 4666 
L 4184 4666 
L 4184 0 
L 3553 0 
L 3553 2222 
L 1259 2222 
L 1259 0 
L 628 0 
L 628 4666 
z
" transform="scale(0.015625)"/>
       <path id="DejaVuSans-64" d="M 2906 2969 
L 2906 4863 
L 3481 4863 
L 3481 0 
L 2906 0 
L 2906 525 
Q 2725 213 2448 61 
Q 2172 -91 1784 -91 
Q 1150 -91 751 415 
Q 353 922 353 1747 
Q 353 2572 751 3078 
Q 1150 3584 1784 3584 
Q 2172 3584 2448 3432 
Q 2725 3281 2906 2969 
z
M 947 1747 
Q 947 1113 1208 752 
Q 1469 391 1925 391 
Q 2381 391 2643 752 
Q 2906 1113 2906 1747 
Q 2906 2381 2643 2742 
Q 2381 3103 1925 3103 
Q 1469 3103 1208 2742 
Q 947 2381 947 1747 
z
" transform="scale(0.015625)"/>
      </defs>
      <use xlink:href="#DejaVuSans-48"/>
      <use xlink:href="#DejaVuSans-6f" x="75.195312"/>
      <use xlink:href="#DejaVuSans-6e" x="136.376953"/>
      <use xlink:href="#DejaVuSans-64" x="199.755859"/>
      <use xlink:href="#DejaVuSans-75" x="263.232422"/>
      <use xlink:href="#DejaVuSans-72" x="326.611328"/>
      <use xlink:href="#DejaVuSans-61" x="367.724609"/>
      <use xlink:href="#DejaVuSans-73" x="429.003906"/>
     </g>
    </g>
   </g>
   <g id="text_5">
    <g clip-path="url(#pc48c969bcb)">
     <!-- DonaldTrump -->
     <g transform="translate(259.147767 494.951227) scale(0.12 -0.12)">
      <defs>
       <path id="DejaVuSans-44" d="M 1259 4147 
L 1259 519 
L 2022 519 
Q 2988 519 3436 956 
Q 3884 1394 3884 2338 
Q 3884 3275 3436 3711 
Q 2988 4147 2022 4147 
L 1259 4147 
z
M 628 4666 
L 1925 4666 
Q 3281 4666 3915 4102 
Q 4550 3538 4550 2338 
Q 4550 1131 3912 565 
Q 3275 0 1925 0 
L 628 0 
L 628 4666 
z
" transform="scale(0.015625)"/>
       <path id="DejaVuSans-6c" d="M 603 4863 
L 1178 4863 
L 1178 0 
L 603 0 
L 603 4863 
z
" transform="scale(0.015625)"/>
       <path id="DejaVuSans-54" d="M -19 4666 
L 3928 4666 
L 3928 4134 
L 2272 4134 
L 2272 0 
L 1638 0 
L 1638 4134 
L -19 4134 
L -19 4666 
z
" transform="scale(0.015625)"/>
       <path id="DejaVuSans-6d" d="M 3328 2828 
Q 3544 3216 3844 3400 
Q 4144 3584 4550 3584 
Q 5097 3584 5394 3201 
Q 5691 2819 5691 2113 
L 5691 0 
L 5113 0 
L 5113 2094 
Q 5113 2597 4934 2840 
Q 4756 3084 4391 3084 
Q 3944 3084 3684 2787 
Q 3425 2491 3425 1978 
L 3425 0 
L 2847 0 
L 2847 2094 
Q 2847 2600 2669 2842 
Q 2491 3084 2119 3084 
Q 1678 3084 1418 2786 
Q 1159 2488 1159 1978 
L 1159 0 
L 581 0 
L 581 3500 
L 1159 3500 
L 1159 2956 
Q 1356 3278 1631 3431 
Q 1906 3584 2284 3584 
Q 2666 3584 2933 3390 
Q 3200 3197 3328 2828 
z
" transform="scale(0.015625)"/>
       <path id="DejaVuSans-70" d="M 1159 525 
L 1159 -1331 
L 581 -1331 
L 581 3500 
L 1159 3500 
L 1159 2969 
Q 1341 3281 1617 3432 
Q 1894 3584 2278 3584 
Q 2916 3584 3314 3078 
Q 3713 2572 3713 1747 
Q 3713 922 3314 415 
Q 2916 -91 2278 -91 
Q 1894 -91 1617 61 
Q 1341 213 1159 525 
z
M 3116 1747 
Q 3116 2381 2855 2742 
Q 2594 3103 2138 3103 
Q 1681 3103 1420 2742 
Q 1159 2381 1159 1747 
Q 1159 1113 1420 752 
Q 1681 391 2138 391 
Q 2594 391 2855 752 
Q 3116 1113 3116 1747 
z
" transform="scale(0.015625)"/>
      </defs>
      <use xlink:href="#DejaVuSans-44"/>
      <use xlink:href="#DejaVuSans-6f" x="77.001953"/>
      <use xlink:href="#DejaVuSans-6e" x="138.183594"/>
      <use xlink:href="#DejaVuSans-61" x="201.5625"/>
      <use xlink:href="#DejaVuSans-6c" x="262.841797"/>
      <use xlink:href="#DejaVuSans-64" x="290.625"/>
      <use xlink:href="#DejaVuSans-54" x="354.101562"/>
      <use xlink:href="#DejaVuSans-72" x="400.435547"/>
      <use xlink:href="#DejaVuSans-75" x="441.548828"/>
      <use xlink:href="#DejaVuSans-6d" x="504.927734"/>
      <use xlink:href="#DejaVuSans-70" x="602.339844"/>
     </g>
    </g>
   </g>
   <g id="text_6">
    <g clip-path="url(#pc48c969bcb)">
     <!-- Kennedy -->
     <g transform="translate(612.381163 446.006318) scale(0.12 -0.12)">
      <defs>
       <path id="DejaVuSans-4b" d="M 628 4666 
L 1259 4666 
L 1259 2694 
L 3353 4666 
L 4166 4666 
L 1850 2491 
L 4331 0 
L 3500 0 
L 1259 2247 
L 1259 0 
L 628 0 
L 628 4666 
z
" transform="scale(0.015625)"/>
       <path id="DejaVuSans-79" d="M 2059 -325 
Q 1816 -950 1584 -1140 
Q 1353 -1331 966 -1331 
L 506 -1331 
L 506 -850 
L 844 -850 
Q 1081 -850 1212 -737 
Q 1344 -625 1503 -206 
L 1606 56 
L 191 3500 
L 800 3500 
L 1894 763 
L 2988 3500 
L 3597 3500 
L 2059 -325 
z
" transform="scale(0.015625)"/>
      </defs>
      <use xlink:href="#DejaVuSans-4b"/>
      <use xlink:href="#DejaVuSans-65" x="60.576172"/>
      <use xlink:href="#DejaVuSans-6e" x="122.099609"/>
      <use xlink:href="#DejaVuSans-6e" x="185.478516"/>
      <use xlink:href="#DejaVuSans-65" x="248.857422"/>
      <use xlink:href="#DejaVuSans-64" x="310.380859"/>
      <use xlink:href="#DejaVuSans-79" x="373.857422"/>
     </g>
    </g>
   </g>
   <g id="text_7">
    <g clip-path="url(#pc48c969bcb)">
     <!-- Great Britain -->
     <g transform="translate(471.311973 84.645244) scale(0.12 -0.12)">
      <defs>
       <path id="DejaVuSans-47" d="M 3809 666 
L 3809 1919 
L 2778 1919 
L 2778 2438 
L 4434 2438 
L 4434 434 
Q 4069 175 3628 42 
Q 3188 -91 2688 -91 
Q 1594 -91 976 548 
Q 359 1188 359 2328 
Q 359 3472 976 4111 
Q 1594 4750 2688 4750 
Q 3144 4750 3555 4637 
Q 3966 4525 4313 4306 
L 4313 3634 
Q 3963 3931 3569 4081 
Q 3175 4231 2741 4231 
Q 1884 4231 1454 3753 
Q 1025 3275 1025 2328 
Q 1025 1384 1454 906 
Q 1884 428 2741 428 
Q 3075 428 3337 486 
Q 3600 544 3809 666 
z
" transform="scale(0.015625)"/>
       <path id="DejaVuSans-42" d="M 1259 2228 
L 1259 519 
L 2272 519 
Q 2781 519 3026 730 
Q 3272 941 3272 1375 
Q 3272 1813 3026 2020 
Q 2781 2228 2272 2228 
L 1259 2228 
z
M 1259 4147 
L 1259 2741 
L 2194 2741 
Q 2656 2741 2882 2914 
Q 3109 3088 3109 3444 
Q 3109 3797 2882 3972 
Q 2656 4147 2194 4147 
L 1259 4147 
z
M 628 4666 
L 2241 4666 
Q 2963 4666 3353 4366 
Q 3744 4066 3744 3513 
Q 3744 3084 3544 2831 
Q 3344 2578 2956 2516 
Q 3422 2416 3680 2098 
Q 3938 1781 3938 1306 
Q 3938 681 3513 340 
Q 3088 0 2303 0 
L 628 0 
L 628 4666 
z
" transform="scale(0.015625)"/>
      </defs>
      <use xlink:href="#DejaVuSans-47"/>
      <use xlink:href="#DejaVuSans-72" x="77.490234"/>
      <use xlink:href="#DejaVuSans-65" x="116.353516"/>
      <use xlink:href="#DejaVuSans-61" x="177.876953"/>
      <use xlink:href="#DejaVuSans-74" x="239.15625"/>
      <use xlink:href="#DejaVuSans-20" x="278.365234"/>
      <use xlink:href="#DejaVuSans-42" x="310.152344"/>
      <use xlink:href="#DejaVuSans-72" x="378.755859"/>
      <use xlink:href="#DejaVuSans-69" x="419.869141"/>
      <use xlink:href="#DejaVuSans-74" x="447.652344"/>
      <use xlink:href="#DejaVuSans-61" x="486.861328"/>
      <use xlink:href="#DejaVuSans-69" x="548.140625"/>
      <use xlink:href="#DejaVuSans-6e" x="575.923828"/>
     </g>
    </g>
   </g>
   <g id="text_8">
    <g clip-path="url(#pc48c969bcb)">
     <!-- Republic -->
     <g transform="translate(77.399698 233.949011) scale(0.12 -0.12)">
      <defs>
       <path id="DejaVuSans-52" d="M 2841 2188 
Q 3044 2119 3236 1894 
Q 3428 1669 3622 1275 
L 4263 0 
L 3584 0 
L 2988 1197 
Q 2756 1666 2539 1819 
Q 2322 1972 1947 1972 
L 1259 1972 
L 1259 0 
L 628 0 
L 628 4666 
L 2053 4666 
Q 2853 4666 3247 4331 
Q 3641 3997 3641 3322 
Q 3641 2881 3436 2590 
Q 3231 2300 2841 2188 
z
M 1259 4147 
L 1259 2491 
L 2053 2491 
Q 2509 2491 2742 2702 
Q 2975 2913 2975 3322 
Q 2975 3731 2742 3939 
Q 2509 4147 2053 4147 
L 1259 4147 
z
" transform="scale(0.015625)"/>
       <path id="DejaVuSans-62" d="M 3116 1747 
Q 3116 2381 2855 2742 
Q 2594 3103 2138 3103 
Q 1681 3103 1420 2742 
Q 1159 2381 1159 1747 
Q 1159 1113 1420 752 
Q 1681 391 2138 391 
Q 2594 391 2855 752 
Q 3116 1113 3116 1747 
z
M 1159 2969 
Q 1341 3281 1617 3432 
Q 1894 3584 2278 3584 
Q 2916 3584 3314 3078 
Q 3713 2572 3713 1747 
Q 3713 922 3314 415 
Q 2916 -91 2278 -91 
Q 1894 -91 1617 61 
Q 1341 213 1159 525 
L 1159 0 
L 581 0 
L 581 4863 
L 1159 4863 
L 1159 2969 
z
" transform="scale(0.015625)"/>
       <path id="DejaVuSans-63" d="M 3122 3366 
L 3122 2828 
Q 2878 2963 2633 3030 
Q 2388 3097 2138 3097 
Q 1578 3097 1268 2742 
Q 959 2388 959 1747 
Q 959 1106 1268 751 
Q 1578 397 2138 397 
Q 2388 397 2633 464 
Q 2878 531 3122 666 
L 3122 134 
Q 2881 22 2623 -34 
Q 2366 -91 2075 -91 
Q 1284 -91 818 406 
Q 353 903 353 1747 
Q 353 2603 823 3093 
Q 1294 3584 2113 3584 
Q 2378 3584 2631 3529 
Q 2884 3475 3122 3366 
z
" transform="scale(0.015625)"/>
      </defs>
      <use xlink:href="#DejaVuSans-52"/>
      <use xlink:href="#DejaVuSans-65" x="64.982422"/>
      <use xlink:href="#DejaVuSans-70" x="126.505859"/>
      <use xlink:href="#DejaVuSans-75" x="189.982422"/>
      <use xlink:href="#DejaVuSans-62" x="253.361328"/>
      <use xlink:href="#DejaVuSans-6c" x="316.837891"/>
      <use xlink:href="#DejaVuSans-69" x="344.621094"/>
      <use xlink:href="#DejaVuSans-63" x="372.404297"/>
     </g>
    </g>
   </g>
   <g id="text_9">
    <g clip-path="url(#pc48c969bcb)">
     <!-- Harry S. -->
     <g transform="translate(208.472539 513.988501) scale(0.12 -0.12)">
      <defs>
       <path id="DejaVuSans-2e" d="M 684 794 
L 1344 794 
L 1344 0 
L 684 0 
L 684 794 
z
" transform="scale(0.015625)"/>
      </defs>
      <use xlink:href="#DejaVuSans-48"/>
      <use xlink:href="#DejaVuSans-61" x="75.195312"/>
      <use xlink:href="#DejaVuSans-72" x="136.474609"/>
      <use xlink:href="#DejaVuSans-72" x="175.837891"/>
      <use xlink:href="#DejaVuSans-79" x="216.951172"/>
      <use xlink:href="#DejaVuSans-20" x="276.130859"/>
      <use xlink:href="#DejaVuSans-53" x="307.917969"/>
      <use xlink:href="#DejaVuSans-2e" x="371.394531"/>
     </g>
    </g>
   </g>
   <g id="text_10">
    <g clip-path="url(#pc48c969bcb)">
     <!-- Arthur Gardner -->
     <g transform="translate(132.334858 349.360672) scale(0.12 -0.12)">
      <defs>
       <path id="DejaVuSans-68" d="M 3513 2113 
L 3513 0 
L 2938 0 
L 2938 2094 
Q 2938 2591 2744 2837 
Q 2550 3084 2163 3084 
Q 1697 3084 1428 2787 
Q 1159 2491 1159 1978 
L 1159 0 
L 581 0 
L 581 4863 
L 1159 4863 
L 1159 2956 
Q 1366 3272 1645 3428 
Q 1925 3584 2291 3584 
Q 2894 3584 3203 3211 
Q 3513 2838 3513 2113 
z
" transform="scale(0.015625)"/>
      </defs>
      <use xlink:href="#DejaVuSans-41"/>
      <use xlink:href="#DejaVuSans-72" x="68.408203"/>
      <use xlink:href="#DejaVuSans-74" x="109.521484"/>
      <use xlink:href="#DejaVuSans-68" x="148.730469"/>
      <use xlink:href="#DejaVuSans-75" x="212.109375"/>
      <use xlink:href="#DejaVuSans-72" x="275.488281"/>
      <use xlink:href="#DejaVuSans-20" x="316.601562"/>
      <use xlink:href="#DejaVuSans-47" x="348.388672"/>
      <use xlink:href="#DejaVuSans-61" x="425.878906"/>
      <use xlink:href="#DejaVuSans-72" x="487.158203"/>
      <use xlink:href="#DejaVuSans-64" x="526.521484"/>
      <use xlink:href="#DejaVuSans-6e" x="589.998047"/>
      <use xlink:href="#DejaVuSans-65" x="653.376953"/>
      <use xlink:href="#DejaVuSans-72" x="714.900391"/>
     </g>
    </g>
   </g>
   <g id="text_11">
    <g clip-path="url(#pc48c969bcb)">
     <!-- ’s -->
     <g transform="translate(458.874382 538.339288) scale(0.12 -0.12)">
      <defs>
       <path id="DejaVuSans-2019" d="M 813 4666 
L 1472 4666 
L 1472 4191 
L 959 3194 
L 556 3194 
L 813 4191 
L 813 4666 
z
" transform="scale(0.015625)"/>
      </defs>
      <use xlink:href="#DejaVuSans-2019"/>
      <use xlink:href="#DejaVuSans-73" x="31.787109"/>
     </g>
    </g>
   </g>
   <g id="text_12">
    <g clip-path="url(#pc48c969bcb)">
     <!-- Ambassador -->
     <g transform="translate(361.206846 115.487259) scale(0.12 -0.12)">
      <use xlink:href="#DejaVuSans-41"/>
      <use xlink:href="#DejaVuSans-6d" x="68.408203"/>
      <use xlink:href="#DejaVuSans-62" x="165.820312"/>
      <use xlink:href="#DejaVuSans-61" x="229.296875"/>
      <use xlink:href="#DejaVuSans-73" x="290.576172"/>
      <use xlink:href="#DejaVuSans-73" x="342.675781"/>
      <use xlink:href="#DejaVuSans-61" x="394.775391"/>
      <use xlink:href="#DejaVuSans-64" x="456.054688"/>
      <use xlink:href="#DejaVuSans-6f" x="519.53125"/>
      <use xlink:href="#DejaVuSans-72" x="580.712891"/>
     </g>
    </g>
   </g>
   <g id="text_13">
    <g clip-path="url(#pc48c969bcb)">
     <!-- Republicans -->
     <g transform="translate(304.204623 551.645904) scale(0.12 -0.12)">
      <use xlink:href="#DejaVuSans-52"/>
      <use xlink:href="#DejaVuSans-65" x="64.982422"/>
      <use xlink:href="#DejaVuSans-70" x="126.505859"/>
      <use xlink:href="#DejaVuSans-75" x="189.982422"/>
      <use xlink:href="#DejaVuSans-62" x="253.361328"/>
      <use xlink:href="#DejaVuSans-6c" x="316.837891"/>
      <use xlink:href="#DejaVuSans-69" x="344.621094"/>
      <use xlink:href="#DejaVuSans-63" x="372.404297"/>
      <use xlink:href="#DejaVuSans-61" x="427.384766"/>
      <use xlink:href="#DejaVuSans-6e" x="488.664062"/>
      <use xlink:href="#DejaVuSans-73" x="552.042969"/>
     </g>
    </g>
   </g>
   <g id="text_14">
    <g clip-path="url(#pc48c969bcb)">
     <!-- Earl Smith -->
     <g transform="translate(633.737224 378.371313) scale(0.12 -0.12)">
      <defs>
       <path id="DejaVuSans-45" d="M 628 4666 
L 3578 4666 
L 3578 4134 
L 1259 4134 
L 1259 2753 
L 3481 2753 
L 3481 2222 
L 1259 2222 
L 1259 531 
L 3634 531 
L 3634 0 
L 628 0 
L 628 4666 
z
" transform="scale(0.015625)"/>
      </defs>
      <use xlink:href="#DejaVuSans-45"/>
      <use xlink:href="#DejaVuSans-61" x="63.183594"/>
      <use xlink:href="#DejaVuSans-72" x="124.462891"/>
      <use xlink:href="#DejaVuSans-6c" x="165.576172"/>
      <use xlink:href="#DejaVuSans-20" x="193.359375"/>
      <use xlink:href="#DejaVuSans-53" x="225.146484"/>
      <use xlink:href="#DejaVuSans-6d" x="288.623047"/>
      <use xlink:href="#DejaVuSans-69" x="386.035156"/>
      <use xlink:href="#DejaVuSans-74" x="413.818359"/>
      <use xlink:href="#DejaVuSans-68" x="453.027344"/>
     </g>
    </g>
   </g>
   <g id="text_15">
    <g clip-path="url(#pc48c969bcb)">
     <!-- JamesMadison -->
     <g transform="translate(598.612592 232.2957) scale(0.12 -0.12)">
      <defs>
       <path id="DejaVuSans-4a" d="M 628 4666 
L 1259 4666 
L 1259 325 
Q 1259 -519 939 -900 
Q 619 -1281 -91 -1281 
L -331 -1281 
L -331 -750 
L -134 -750 
Q 284 -750 456 -515 
Q 628 -281 628 325 
L 628 4666 
z
" transform="scale(0.015625)"/>
      </defs>
      <use xlink:href="#DejaVuSans-4a"/>
      <use xlink:href="#DejaVuSans-61" x="29.492188"/>
      <use xlink:href="#DejaVuSans-6d" x="90.771484"/>
      <use xlink:href="#DejaVuSans-65" x="188.183594"/>
      <use xlink:href="#DejaVuSans-73" x="249.707031"/>
      <use xlink:href="#DejaVuSans-4d" x="301.806641"/>
      <use xlink:href="#DejaVuSans-61" x="388.085938"/>
      <use xlink:href="#DejaVuSans-64" x="449.365234"/>
      <use xlink:href="#DejaVuSans-69" x="512.841797"/>
      <use xlink:href="#DejaVuSans-73" x="540.625"/>
      <use xlink:href="#DejaVuSans-6f" x="592.724609"/>
      <use xlink:href="#DejaVuSans-6e" x="653.90625"/>
     </g>
    </g>
   </g>
   <g id="text_16">
    <g clip-path="url(#pc48c969bcb)">
     <!-- America -->
     <g transform="translate(186.15339 135.466404) scale(0.12 -0.12)">
      <use xlink:href="#DejaVuSans-41"/>
      <use xlink:href="#DejaVuSans-6d" x="68.408203"/>
      <use xlink:href="#DejaVuSans-65" x="165.820312"/>
      <use xlink:href="#DejaVuSans-72" x="227.34375"/>
      <use xlink:href="#DejaVuSans-69" x="268.457031"/>
      <use xlink:href="#DejaVuSans-63" x="296.240234"/>
      <use xlink:href="#DejaVuSans-61" x="351.220703"/>
     </g>
    </g>
   </g>
   <g id="text_17">
    <g clip-path="url(#pc48c969bcb)">
     <!-- Congress -->
     <g transform="translate(197.382878 75.612846) scale(0.12 -0.12)">
      <defs>
       <path id="DejaVuSans-43" d="M 4122 4306 
L 4122 3641 
Q 3803 3938 3442 4084 
Q 3081 4231 2675 4231 
Q 1875 4231 1450 3742 
Q 1025 3253 1025 2328 
Q 1025 1406 1450 917 
Q 1875 428 2675 428 
Q 3081 428 3442 575 
Q 3803 722 4122 1019 
L 4122 359 
Q 3791 134 3420 21 
Q 3050 -91 2638 -91 
Q 1578 -91 968 557 
Q 359 1206 359 2328 
Q 359 3453 968 4101 
Q 1578 4750 2638 4750 
Q 3056 4750 3426 4639 
Q 3797 4528 4122 4306 
z
" transform="scale(0.015625)"/>
       <path id="DejaVuSans-67" d="M 2906 1791 
Q 2906 2416 2648 2759 
Q 2391 3103 1925 3103 
Q 1463 3103 1205 2759 
Q 947 2416 947 1791 
Q 947 1169 1205 825 
Q 1463 481 1925 481 
Q 2391 481 2648 825 
Q 2906 1169 2906 1791 
z
M 3481 434 
Q 3481 -459 3084 -895 
Q 2688 -1331 1869 -1331 
Q 1566 -1331 1297 -1286 
Q 1028 -1241 775 -1147 
L 775 -588 
Q 1028 -725 1275 -790 
Q 1522 -856 1778 -856 
Q 2344 -856 2625 -561 
Q 2906 -266 2906 331 
L 2906 616 
Q 2728 306 2450 153 
Q 2172 0 1784 0 
Q 1141 0 747 490 
Q 353 981 353 1791 
Q 353 2603 747 3093 
Q 1141 3584 1784 3584 
Q 2172 3584 2450 3431 
Q 2728 3278 2906 2969 
L 2906 3500 
L 3481 3500 
L 3481 434 
z
" transform="scale(0.015625)"/>
      </defs>
      <use xlink:href="#DejaVuSans-43"/>
      <use xlink:href="#DejaVuSans-6f" x="69.824219"/>
      <use xlink:href="#DejaVuSans-6e" x="131.005859"/>
      <use xlink:href="#DejaVuSans-67" x="194.384766"/>
      <use xlink:href="#DejaVuSans-72" x="257.861328"/>
      <use xlink:href="#DejaVuSans-65" x="296.724609"/>
      <use xlink:href="#DejaVuSans-73" x="358.248047"/>
      <use xlink:href="#DejaVuSans-73" x="410.347656"/>
     </g>
    </g>
   </g>
   <g id="text_18">
    <g clip-path="url(#pc48c969bcb)">
     <!-- Nicaragua -->
     <g transform="translate(39.115901 274.037728) scale(0.12 -0.12)">
      <use xlink:href="#DejaVuSans-4e"/>
      <use xlink:href="#DejaVuSans-69" x="74.804688"/>
      <use xlink:href="#DejaVuSans-63" x="102.587891"/>
      <use xlink:href="#DejaVuSans-61" x="157.568359"/>
      <use xlink:href="#DejaVuSans-72" x="218.847656"/>
      <use xlink:href="#DejaVuSans-61" x="259.960938"/>
      <use xlink:href="#DejaVuSans-67" x="321.240234"/>
      <use xlink:href="#DejaVuSans-75" x="384.716797"/>
      <use xlink:href="#DejaVuSans-61" x="448.095703"/>
     </g>
    </g>
   </g>
   <g id="text_19">
    <g clip-path="url(#pc48c969bcb)">
     <!-- Truman -->
     <g transform="translate(396.681362 480.54036) scale(0.12 -0.12)">
      <use xlink:href="#DejaVuSans-54"/>
      <use xlink:href="#DejaVuSans-72" x="46.333984"/>
      <use xlink:href="#DejaVuSans-75" x="87.447266"/>
      <use xlink:href="#DejaVuSans-6d" x="150.826172"/>
      <use xlink:href="#DejaVuSans-61" x="248.238281"/>
      <use xlink:href="#DejaVuSans-6e" x="309.517578"/>
     </g>
    </g>
   </g>
   <g id="text_20">
    <g clip-path="url(#pc48c969bcb)">
     <!-- Administrator -->
     <g transform="translate(96.748442 162.123213) scale(0.12 -0.12)">
      <use xlink:href="#DejaVuSans-41"/>
      <use xlink:href="#DejaVuSans-64" x="66.658203"/>
      <use xlink:href="#DejaVuSans-6d" x="130.134766"/>
      <use xlink:href="#DejaVuSans-69" x="227.546875"/>
      <use xlink:href="#DejaVuSans-6e" x="255.330078"/>
      <use xlink:href="#DejaVuSans-69" x="318.708984"/>
      <use xlink:href="#DejaVuSans-73" x="346.492188"/>
      <use xlink:href="#DejaVuSans-74" x="398.591797"/>
      <use xlink:href="#DejaVuSans-72" x="437.800781"/>
      <use xlink:href="#DejaVuSans-61" x="478.914062"/>
      <use xlink:href="#DejaVuSans-74" x="540.193359"/>
      <use xlink:href="#DejaVuSans-6f" x="579.402344"/>
      <use xlink:href="#DejaVuSans-72" x="640.583984"/>
     </g>
    </g>
   </g>
   <g id="text_21">
    <g clip-path="url(#pc48c969bcb)">
     <!-- John F. -->
     <g transform="translate(639.712277 299.970713) scale(0.12 -0.12)">
      <defs>
       <path id="DejaVuSans-46" d="M 628 4666 
L 3309 4666 
L 3309 4134 
L 1259 4134 
L 1259 2759 
L 3109 2759 
L 3109 2228 
L 1259 2228 
L 1259 0 
L 628 0 
L 628 4666 
z
" transform="scale(0.015625)"/>
      </defs>
      <use xlink:href="#DejaVuSans-4a"/>
      <use xlink:href="#DejaVuSans-6f" x="29.492188"/>
      <use xlink:href="#DejaVuSans-68" x="90.673828"/>
      <use xlink:href="#DejaVuSans-6e" x="154.052734"/>
      <use xlink:href="#DejaVuSans-20" x="217.431641"/>
      <use xlink:href="#DejaVuSans-46" x="249.21875"/>
      <use xlink:href="#DejaVuSans-2e" x="290.613281"/>
     </g>
    </g>
   </g>
   <g id="text_22">
    <g clip-path="url(#pc48c969bcb)">
     <!-- Members -->
     <g transform="translate(88.893602 416.472665) scale(0.12 -0.12)">
      <use xlink:href="#DejaVuSans-4d"/>
      <use xlink:href="#DejaVuSans-65" x="86.279297"/>
      <use xlink:href="#DejaVuSans-6d" x="147.802734"/>
      <use xlink:href="#DejaVuSans-62" x="245.214844"/>
      <use xlink:href="#DejaVuSans-65" x="308.691406"/>
      <use xlink:href="#DejaVuSans-72" x="370.214844"/>
      <use xlink:href="#DejaVuSans-73" x="411.328125"/>
     </g>
    </g>
   </g>
   <g id="text_23">
    <g clip-path="url(#pc48c969bcb)">
     <!-- Mr. Gleason -->
     <g transform="translate(548.641949 102.821025) scale(0.12 -0.12)">
      <use xlink:href="#DejaVuSans-4d"/>
      <use xlink:href="#DejaVuSans-72" x="86.279297"/>
      <use xlink:href="#DejaVuSans-2e" x="118.267578"/>
      <use xlink:href="#DejaVuSans-20" x="150.054688"/>
      <use xlink:href="#DejaVuSans-47" x="181.841797"/>
      <use xlink:href="#DejaVuSans-6c" x="259.332031"/>
      <use xlink:href="#DejaVuSans-65" x="287.115234"/>
      <use xlink:href="#DejaVuSans-61" x="348.638672"/>
      <use xlink:href="#DejaVuSans-73" x="409.917969"/>
      <use xlink:href="#DejaVuSans-6f" x="462.017578"/>
      <use xlink:href="#DejaVuSans-6e" x="523.199219"/>
     </g>
    </g>
   </g>
   <g id="text_24">
    <g clip-path="url(#pc48c969bcb)">
     <!-- GeorgeW.Bush -->
     <g transform="translate(503.066285 323.617448) scale(0.12 -0.12)">
      <defs>
       <path id="DejaVuSans-57" d="M 213 4666 
L 850 4666 
L 1831 722 
L 2809 4666 
L 3519 4666 
L 4500 722 
L 5478 4666 
L 6119 4666 
L 4947 0 
L 4153 0 
L 3169 4050 
L 2175 0 
L 1381 0 
L 213 4666 
z
" transform="scale(0.015625)"/>
      </defs>
      <use xlink:href="#DejaVuSans-47"/>
      <use xlink:href="#DejaVuSans-65" x="77.490234"/>
      <use xlink:href="#DejaVuSans-6f" x="139.013672"/>
      <use xlink:href="#DejaVuSans-72" x="200.195312"/>
      <use xlink:href="#DejaVuSans-67" x="239.558594"/>
      <use xlink:href="#DejaVuSans-65" x="303.035156"/>
      <use xlink:href="#DejaVuSans-57" x="364.558594"/>
      <use xlink:href="#DejaVuSans-2e" x="451.935547"/>
      <use xlink:href="#DejaVuSans-42" x="483.722656"/>
      <use xlink:href="#DejaVuSans-75" x="552.326172"/>
      <use xlink:href="#DejaVuSans-73" x="615.705078"/>
      <use xlink:href="#DejaVuSans-68" x="667.804688"/>
     </g>
    </g>
   </g>
   <g id="text_25">
    <g clip-path="url(#pc48c969bcb)">
     <!-- Republican Ambassador -->
     <g transform="translate(89.888711 513.825698) scale(0.12 -0.12)">
      <use xlink:href="#DejaVuSans-52"/>
      <use xlink:href="#DejaVuSans-65" x="64.982422"/>
      <use xlink:href="#DejaVuSans-70" x="126.505859"/>
      <use xlink:href="#DejaVuSans-75" x="189.982422"/>
      <use xlink:href="#DejaVuSans-62" x="253.361328"/>
      <use xlink:href="#DejaVuSans-6c" x="316.837891"/>
      <use xlink:href="#DejaVuSans-69" x="344.621094"/>
      <use xlink:href="#DejaVuSans-63" x="372.404297"/>
      <use xlink:href="#DejaVuSans-61" x="427.384766"/>
      <use xlink:href="#DejaVuSans-6e" x="488.664062"/>
      <use xlink:href="#DejaVuSans-20" x="552.042969"/>
      <use xlink:href="#DejaVuSans-41" x="583.830078"/>
      <use xlink:href="#DejaVuSans-6d" x="652.238281"/>
      <use xlink:href="#DejaVuSans-62" x="749.650391"/>
      <use xlink:href="#DejaVuSans-61" x="813.126953"/>
      <use xlink:href="#DejaVuSans-73" x="874.40625"/>
      <use xlink:href="#DejaVuSans-73" x="926.505859"/>
      <use xlink:href="#DejaVuSans-61" x="978.605469"/>
      <use xlink:href="#DejaVuSans-64" x="1039.884766"/>
      <use xlink:href="#DejaVuSans-6f" x="1103.361328"/>
      <use xlink:href="#DejaVuSans-72" x="1164.542969"/>
     </g>
    </g>
   </g>
   <g id="text_26">
    <g clip-path="url(#pc48c969bcb)">
     <!-- Democrats -->
     <g transform="translate(265.940633 115.183442) scale(0.12 -0.12)">
      <use xlink:href="#DejaVuSans-44"/>
      <use xlink:href="#DejaVuSans-65" x="77.001953"/>
      <use xlink:href="#DejaVuSans-6d" x="138.525391"/>
      <use xlink:href="#DejaVuSans-6f" x="235.9375"/>
      <use xlink:href="#DejaVuSans-63" x="297.119141"/>
      <use xlink:href="#DejaVuSans-72" x="352.099609"/>
      <use xlink:href="#DejaVuSans-61" x="393.212891"/>
      <use xlink:href="#DejaVuSans-74" x="454.492188"/>
      <use xlink:href="#DejaVuSans-73" x="493.701172"/>
     </g>
    </g>
   </g>
   <g id="text_27">
    <!-- top positive Sent. of 0ver 0.25 Relation Knowledge Map top relation for each entity -->
    <g transform="translate(117.906563 16.318125) scale(0.12 -0.12)">
     <defs>
      <path id="DejaVuSans-76" d="M 191 3500 
L 800 3500 
L 1894 563 
L 2988 3500 
L 3597 3500 
L 2284 0 
L 1503 0 
L 191 3500 
z
" transform="scale(0.015625)"/>
      <path id="DejaVuSans-30" d="M 2034 4250 
Q 1547 4250 1301 3770 
Q 1056 3291 1056 2328 
Q 1056 1369 1301 889 
Q 1547 409 2034 409 
Q 2525 409 2770 889 
Q 3016 1369 3016 2328 
Q 3016 3291 2770 3770 
Q 2525 4250 2034 4250 
z
M 2034 4750 
Q 2819 4750 3233 4129 
Q 3647 3509 3647 2328 
Q 3647 1150 3233 529 
Q 2819 -91 2034 -91 
Q 1250 -91 836 529 
Q 422 1150 422 2328 
Q 422 3509 836 4129 
Q 1250 4750 2034 4750 
z
" transform="scale(0.015625)"/>
      <path id="DejaVuSans-32" d="M 1228 531 
L 3431 531 
L 3431 0 
L 469 0 
L 469 531 
Q 828 903 1448 1529 
Q 2069 2156 2228 2338 
Q 2531 2678 2651 2914 
Q 2772 3150 2772 3378 
Q 2772 3750 2511 3984 
Q 2250 4219 1831 4219 
Q 1534 4219 1204 4116 
Q 875 4013 500 3803 
L 500 4441 
Q 881 4594 1212 4672 
Q 1544 4750 1819 4750 
Q 2544 4750 2975 4387 
Q 3406 4025 3406 3419 
Q 3406 3131 3298 2873 
Q 3191 2616 2906 2266 
Q 2828 2175 2409 1742 
Q 1991 1309 1228 531 
z
" transform="scale(0.015625)"/>
      <path id="DejaVuSans-35" d="M 691 4666 
L 3169 4666 
L 3169 4134 
L 1269 4134 
L 1269 2991 
Q 1406 3038 1543 3061 
Q 1681 3084 1819 3084 
Q 2600 3084 3056 2656 
Q 3513 2228 3513 1497 
Q 3513 744 3044 326 
Q 2575 -91 1722 -91 
Q 1428 -91 1123 -41 
Q 819 9 494 109 
L 494 744 
Q 775 591 1075 516 
Q 1375 441 1709 441 
Q 2250 441 2565 725 
Q 2881 1009 2881 1497 
Q 2881 1984 2565 2268 
Q 2250 2553 1709 2553 
Q 1456 2553 1204 2497 
Q 953 2441 691 2322 
L 691 4666 
z
" transform="scale(0.015625)"/>
      <path id="DejaVuSans-77" d="M 269 3500 
L 844 3500 
L 1563 769 
L 2278 3500 
L 2956 3500 
L 3675 769 
L 4391 3500 
L 4966 3500 
L 4050 0 
L 3372 0 
L 2619 2869 
L 1863 0 
L 1184 0 
L 269 3500 
z
" transform="scale(0.015625)"/>
     </defs>
     <use xlink:href="#DejaVuSans-74"/>
     <use xlink:href="#DejaVuSans-6f" x="39.208984"/>
     <use xlink:href="#DejaVuSans-70" x="100.390625"/>
     <use xlink:href="#DejaVuSans-20" x="163.867188"/>
     <use xlink:href="#DejaVuSans-70" x="195.654297"/>
     <use xlink:href="#DejaVuSans-6f" x="259.130859"/>
     <use xlink:href="#DejaVuSans-73" x="320.3125"/>
     <use xlink:href="#DejaVuSans-69" x="372.412109"/>
     <use xlink:href="#DejaVuSans-74" x="400.195312"/>
     <use xlink:href="#DejaVuSans-69" x="439.404297"/>
     <use xlink:href="#DejaVuSans-76" x="467.1875"/>
     <use xlink:href="#DejaVuSans-65" x="526.367188"/>
     <use xlink:href="#DejaVuSans-20" x="587.890625"/>
     <use xlink:href="#DejaVuSans-53" x="619.677734"/>
     <use xlink:href="#DejaVuSans-65" x="683.154297"/>
     <use xlink:href="#DejaVuSans-6e" x="744.677734"/>
     <use xlink:href="#DejaVuSans-74" x="808.056641"/>
     <use xlink:href="#DejaVuSans-2e" x="847.265625"/>
     <use xlink:href="#DejaVuSans-20" x="879.052734"/>
     <use xlink:href="#DejaVuSans-6f" x="910.839844"/>
     <use xlink:href="#DejaVuSans-66" x="972.021484"/>
     <use xlink:href="#DejaVuSans-20" x="1007.226562"/>
     <use xlink:href="#DejaVuSans-30" x="1039.013672"/>
     <use xlink:href="#DejaVuSans-76" x="1102.636719"/>
     <use xlink:href="#DejaVuSans-65" x="1161.816406"/>
     <use xlink:href="#DejaVuSans-72" x="1223.339844"/>
     <use xlink:href="#DejaVuSans-20" x="1264.453125"/>
     <use xlink:href="#DejaVuSans-30" x="1296.240234"/>
     <use xlink:href="#DejaVuSans-2e" x="1359.863281"/>
     <use xlink:href="#DejaVuSans-32" x="1391.650391"/>
     <use xlink:href="#DejaVuSans-35" x="1455.273438"/>
     <use xlink:href="#DejaVuSans-20" x="1518.896484"/>
     <use xlink:href="#DejaVuSans-52" x="1550.683594"/>
     <use xlink:href="#DejaVuSans-65" x="1615.666016"/>
     <use xlink:href="#DejaVuSans-6c" x="1677.189453"/>
     <use xlink:href="#DejaVuSans-61" x="1704.972656"/>
     <use xlink:href="#DejaVuSans-74" x="1766.251953"/>
     <use xlink:href="#DejaVuSans-69" x="1805.460938"/>
     <use xlink:href="#DejaVuSans-6f" x="1833.244141"/>
     <use xlink:href="#DejaVuSans-6e" x="1894.425781"/>
     <use xlink:href="#DejaVuSans-20" x="1957.804688"/>
     <use xlink:href="#DejaVuSans-4b" x="1989.591797"/>
     <use xlink:href="#DejaVuSans-6e" x="2055.167969"/>
     <use xlink:href="#DejaVuSans-6f" x="2118.546875"/>
     <use xlink:href="#DejaVuSans-77" x="2179.728516"/>
     <use xlink:href="#DejaVuSans-6c" x="2261.515625"/>
     <use xlink:href="#DejaVuSans-65" x="2289.298828"/>
     <use xlink:href="#DejaVuSans-64" x="2350.822266"/>
     <use xlink:href="#DejaVuSans-67" x="2414.298828"/>
     <use xlink:href="#DejaVuSans-65" x="2477.775391"/>
     <use xlink:href="#DejaVuSans-20" x="2539.298828"/>
     <use xlink:href="#DejaVuSans-4d" x="2571.085938"/>
     <use xlink:href="#DejaVuSans-61" x="2657.365234"/>
     <use xlink:href="#DejaVuSans-70" x="2718.644531"/>
     <use xlink:href="#DejaVuSans-20" x="2782.121094"/>
     <use xlink:href="#DejaVuSans-74" x="2813.908203"/>
     <use xlink:href="#DejaVuSans-6f" x="2853.117188"/>
     <use xlink:href="#DejaVuSans-70" x="2914.298828"/>
     <use xlink:href="#DejaVuSans-20" x="2977.775391"/>
     <use xlink:href="#DejaVuSans-72" x="3009.5625"/>
     <use xlink:href="#DejaVuSans-65" x="3048.425781"/>
     <use xlink:href="#DejaVuSans-6c" x="3109.949219"/>
     <use xlink:href="#DejaVuSans-61" x="3137.732422"/>
     <use xlink:href="#DejaVuSans-74" x="3199.011719"/>
     <use xlink:href="#DejaVuSans-69" x="3238.220703"/>
     <use xlink:href="#DejaVuSans-6f" x="3266.003906"/>
     <use xlink:href="#DejaVuSans-6e" x="3327.185547"/>
     <use xlink:href="#DejaVuSans-20" x="3390.564453"/>
     <use xlink:href="#DejaVuSans-66" x="3422.351562"/>
     <use xlink:href="#DejaVuSans-6f" x="3457.556641"/>
     <use xlink:href="#DejaVuSans-72" x="3518.738281"/>
     <use xlink:href="#DejaVuSans-20" x="3559.851562"/>
     <use xlink:href="#DejaVuSans-65" x="3591.638672"/>
     <use xlink:href="#DejaVuSans-61" x="3653.162109"/>
     <use xlink:href="#DejaVuSans-63" x="3714.441406"/>
     <use xlink:href="#DejaVuSans-68" x="3769.421875"/>
     <use xlink:href="#DejaVuSans-20" x="3832.800781"/>
     <use xlink:href="#DejaVuSans-65" x="3864.587891"/>
     <use xlink:href="#DejaVuSans-6e" x="3926.111328"/>
     <use xlink:href="#DejaVuSans-74" x="3989.490234"/>
     <use xlink:href="#DejaVuSans-69" x="4028.699219"/>
     <use xlink:href="#DejaVuSans-74" x="4056.482422"/>
     <use xlink:href="#DejaVuSans-79" x="4095.691406"/>
    </g>
   </g>
  </g>
 </g>
 <defs>
  <clipPath id="pc48c969bcb">
   <rect x="7.2" y="22.318125" width="720" height="576"/>
  </clipPath>
 </defs>
</svg>
