<?xml version="1.0" encoding="utf-8" standalone="no"?>
<!DOCTYPE svg PUBLIC "-//W3C//DTD SVG 1.1//EN"
  "http://www.w3.org/Graphics/SVG/1.1/DTD/svg11.dtd">
<svg xmlns:xlink="http://www.w3.org/1999/xlink" width="421.98625pt" height="408.916062pt" viewBox="0 0 421.98625 408.916062" xmlns="http://www.w3.org/2000/svg" version="1.1">
 <metadata>
  <rdf:RDF xmlns:dc="http://purl.org/dc/elements/1.1/" xmlns:cc="http://creativecommons.org/ns#" xmlns:rdf="http://www.w3.org/1999/02/22-rdf-syntax-ns#">
   <cc:Work>
    <dc:type rdf:resource="http://purl.org/dc/dcmitype/StillImage"/>
    <dc:date>2024-05-12T19:21:03.952108</dc:date>
    <dc:format>image/svg+xml</dc:format>
    <dc:creator>
     <cc:Agent>
      <dc:title>Matplotlib v3.8.4, https://matplotlib.org/</dc:title>
     </cc:Agent>
    </dc:creator>
   </cc:Work>
  </rdf:RDF>
 </metadata>
 <defs>
  <style type="text/css">*{stroke-linejoin: round; stroke-linecap: butt}</style>
 </defs>
 <g id="figure_1">
  <g id="patch_1">
   <path d="M 0 408.916062 
L 421.98625 408.916062 
L 421.98625 0 
L 0 0 
L 0 408.916062 
z
" style="fill: none"/>
  </g>
  <g id="axes_1">
   <g id="patch_2">
    <path d="M 66.1875 245.836875 
L 400.9875 245.836875 
L 400.9875 28.396875 
L 66.1875 28.396875 
z
" style="fill: #ffffff"/>
   </g>
   <g id="patch_3">
    <path d="M 81.405682 245.836875 
L 117.213168 245.836875 
L 117.213168 38.751161 
L 81.405682 38.751161 
z
" clip-path="url(#pd92a0b47ed)" style="fill: #ff0000"/>
   </g>
   <g id="patch_4">
    <path d="M 126.16504 245.836875 
L 161.972527 245.836875 
L 161.972527 217.036875 
L 126.16504 217.036875 
z
" clip-path="url(#pd92a0b47ed)" style="fill: #ff0000"/>
   </g>
   <g id="patch_5">
    <path d="M 170.924398 245.836875 
L 206.731885 245.836875 
L 206.731885 206.065446 
L 170.924398 206.065446 
z
" clip-path="url(#pd92a0b47ed)" style="fill: #ff0000"/>
   </g>
   <g id="patch_6">
    <path d="M 215.683757 245.836875 
L 251.491243 245.836875 
L 251.491243 228.008304 
L 215.683757 228.008304 
z
" clip-path="url(#pd92a0b47ed)" style="fill: #ff0000"/>
   </g>
   <g id="patch_7">
    <path d="M 260.443115 245.836875 
L 296.250602 245.836875 
L 296.250602 233.494018 
L 260.443115 233.494018 
z
" clip-path="url(#pd92a0b47ed)" style="fill: #ff0000"/>
   </g>
   <g id="patch_8">
    <path d="M 305.202473 245.836875 
L 341.00996 245.836875 
L 341.00996 219.779732 
L 305.202473 219.779732 
z
" clip-path="url(#pd92a0b47ed)" style="fill: #ff0000"/>
   </g>
   <g id="patch_9">
    <path d="M 349.961832 245.836875 
L 385.769318 245.836875 
L 385.769318 228.008304 
L 349.961832 228.008304 
z
" clip-path="url(#pd92a0b47ed)" style="fill: #ff0000"/>
   </g>
   <g id="matplotlib.axis_1">
    <g id="xtick_1">
     <g id="line2d_1">
      <defs>
       <path id="m6fa6c340c9" d="M 0 0 
L 0 3.5 
" style="stroke: #000000; stroke-width: 0.8"/>
      </defs>
      <g>
       <use xlink:href="#m6fa6c340c9" x="99.309425" y="245.836875" style="stroke: #000000; stroke-width: 0.8"/>
      </g>
     </g>
     <g id="text_1">
      <!-- Israel -->
      <g transform="translate(87.742429 289.883746) rotate(-45) scale(0.15 -0.15)">
       <defs>
        <path id="DejaVuSans-49" d="M 628 4666 
L 1259 4666 
L 1259 0 
L 628 0 
L 628 4666 
z
" transform="scale(0.015625)"/>
        <path id="DejaVuSans-73" d="M 2834 3397 
L 2834 2853 
Q 2591 2978 2328 3040 
Q 2066 3103 1784 3103 
Q 1356 3103 1142 2972 
Q 928 2841 928 2578 
Q 928 2378 1081 2264 
Q 1234 2150 1697 2047 
L 1894 2003 
Q 2506 1872 2764 1633 
Q 3022 1394 3022 966 
Q 3022 478 2636 193 
Q 2250 -91 1575 -91 
Q 1294 -91 989 -36 
Q 684 19 347 128 
L 347 722 
Q 666 556 975 473 
Q 1284 391 1588 391 
Q 1994 391 2212 530 
Q 2431 669 2431 922 
Q 2431 1156 2273 1281 
Q 2116 1406 1581 1522 
L 1381 1569 
Q 847 1681 609 1914 
Q 372 2147 372 2553 
Q 372 3047 722 3315 
Q 1072 3584 1716 3584 
Q 2034 3584 2315 3537 
Q 2597 3491 2834 3397 
z
" transform="scale(0.015625)"/>
        <path id="DejaVuSans-72" d="M 2631 2963 
Q 2534 3019 2420 3045 
Q 2306 3072 2169 3072 
Q 1681 3072 1420 2755 
Q 1159 2438 1159 1844 
L 1159 0 
L 581 0 
L 581 3500 
L 1159 3500 
L 1159 2956 
Q 1341 3275 1631 3429 
Q 1922 3584 2338 3584 
Q 2397 3584 2469 3576 
Q 2541 3569 2628 3553 
L 2631 2963 
z
" transform="scale(0.015625)"/>
        <path id="DejaVuSans-61" d="M 2194 1759 
Q 1497 1759 1228 1600 
Q 959 1441 959 1056 
Q 959 750 1161 570 
Q 1363 391 1709 391 
Q 2188 391 2477 730 
Q 2766 1069 2766 1631 
L 2766 1759 
L 2194 1759 
z
M 3341 1997 
L 3341 0 
L 2766 0 
L 2766 531 
Q 2569 213 2275 61 
Q 1981 -91 1556 -91 
Q 1019 -91 701 211 
Q 384 513 384 1019 
Q 384 1609 779 1909 
Q 1175 2209 1959 2209 
L 2766 2209 
L 2766 2266 
Q 2766 2663 2505 2880 
Q 2244 3097 1772 3097 
Q 1472 3097 1187 3025 
Q 903 2953 641 2809 
L 641 3341 
Q 956 3463 1253 3523 
Q 1550 3584 1831 3584 
Q 2591 3584 2966 3190 
Q 3341 2797 3341 1997 
z
" transform="scale(0.015625)"/>
        <path id="DejaVuSans-65" d="M 3597 1894 
L 3597 1613 
L 953 1613 
Q 991 1019 1311 708 
Q 1631 397 2203 397 
Q 2534 397 2845 478 
Q 3156 559 3463 722 
L 3463 178 
Q 3153 47 2828 -22 
Q 2503 -91 2169 -91 
Q 1331 -91 842 396 
Q 353 884 353 1716 
Q 353 2575 817 3079 
Q 1281 3584 2069 3584 
Q 2775 3584 3186 3129 
Q 3597 2675 3597 1894 
z
M 3022 2063 
Q 3016 2534 2758 2815 
Q 2500 3097 2075 3097 
Q 1594 3097 1305 2825 
Q 1016 2553 972 2059 
L 3022 2063 
z
" transform="scale(0.015625)"/>
        <path id="DejaVuSans-6c" d="M 603 4863 
L 1178 4863 
L 1178 0 
L 603 0 
L 603 4863 
z
" transform="scale(0.015625)"/>
       </defs>
       <use xlink:href="#DejaVuSans-49"/>
       <use xlink:href="#DejaVuSans-73" x="29.492188"/>
       <use xlink:href="#DejaVuSans-72" x="81.591797"/>
       <use xlink:href="#DejaVuSans-61" x="122.705078"/>
       <use xlink:href="#DejaVuSans-65" x="183.984375"/>
       <use xlink:href="#DejaVuSans-6c" x="245.507812"/>
      </g>
     </g>
    </g>
    <g id="xtick_2">
     <g id="line2d_2">
      <g>
       <use xlink:href="#m6fa6c340c9" x="144.068783" y="245.836875" style="stroke: #000000; stroke-width: 0.8"/>
      </g>
     </g>
     <g id="text_2">
      <!-- Palestinians -->
      <g transform="translate(115.527081 323.833158) rotate(-45) scale(0.15 -0.15)">
       <defs>
        <path id="DejaVuSans-50" d="M 1259 4147 
L 1259 2394 
L 2053 2394 
Q 2494 2394 2734 2622 
Q 2975 2850 2975 3272 
Q 2975 3691 2734 3919 
Q 2494 4147 2053 4147 
L 1259 4147 
z
M 628 4666 
L 2053 4666 
Q 2838 4666 3239 4311 
Q 3641 3956 3641 3272 
Q 3641 2581 3239 2228 
Q 2838 1875 2053 1875 
L 1259 1875 
L 1259 0 
L 628 0 
L 628 4666 
z
" transform="scale(0.015625)"/>
        <path id="DejaVuSans-74" d="M 1172 4494 
L 1172 3500 
L 2356 3500 
L 2356 3053 
L 1172 3053 
L 1172 1153 
Q 1172 725 1289 603 
Q 1406 481 1766 481 
L 2356 481 
L 2356 0 
L 1766 0 
Q 1100 0 847 248 
Q 594 497 594 1153 
L 594 3053 
L 172 3053 
L 172 3500 
L 594 3500 
L 594 4494 
L 1172 4494 
z
" transform="scale(0.015625)"/>
        <path id="DejaVuSans-69" d="M 603 3500 
L 1178 3500 
L 1178 0 
L 603 0 
L 603 3500 
z
M 603 4863 
L 1178 4863 
L 1178 4134 
L 603 4134 
L 603 4863 
z
" transform="scale(0.015625)"/>
        <path id="DejaVuSans-6e" d="M 3513 2113 
L 3513 0 
L 2938 0 
L 2938 2094 
Q 2938 2591 2744 2837 
Q 2550 3084 2163 3084 
Q 1697 3084 1428 2787 
Q 1159 2491 1159 1978 
L 1159 0 
L 581 0 
L 581 3500 
L 1159 3500 
L 1159 2956 
Q 1366 3272 1645 3428 
Q 1925 3584 2291 3584 
Q 2894 3584 3203 3211 
Q 3513 2838 3513 2113 
z
" transform="scale(0.015625)"/>
       </defs>
       <use xlink:href="#DejaVuSans-50"/>
       <use xlink:href="#DejaVuSans-61" x="55.802734"/>
       <use xlink:href="#DejaVuSans-6c" x="117.082031"/>
       <use xlink:href="#DejaVuSans-65" x="144.865234"/>
       <use xlink:href="#DejaVuSans-73" x="206.388672"/>
       <use xlink:href="#DejaVuSans-74" x="258.488281"/>
       <use xlink:href="#DejaVuSans-69" x="297.697266"/>
       <use xlink:href="#DejaVuSans-6e" x="325.480469"/>
       <use xlink:href="#DejaVuSans-69" x="388.859375"/>
       <use xlink:href="#DejaVuSans-61" x="416.642578"/>
       <use xlink:href="#DejaVuSans-6e" x="477.921875"/>
       <use xlink:href="#DejaVuSans-73" x="541.300781"/>
      </g>
     </g>
    </g>
    <g id="xtick_3">
     <g id="line2d_3">
      <g>
       <use xlink:href="#m6fa6c340c9" x="188.828142" y="245.836875" style="stroke: #000000; stroke-width: 0.8"/>
      </g>
     </g>
     <g id="text_3">
      <!-- Palestinian -->
      <g transform="translate(163.049128 318.307781) rotate(-45) scale(0.15 -0.15)">
       <use xlink:href="#DejaVuSans-50"/>
       <use xlink:href="#DejaVuSans-61" x="55.802734"/>
       <use xlink:href="#DejaVuSans-6c" x="117.082031"/>
       <use xlink:href="#DejaVuSans-65" x="144.865234"/>
       <use xlink:href="#DejaVuSans-73" x="206.388672"/>
       <use xlink:href="#DejaVuSans-74" x="258.488281"/>
       <use xlink:href="#DejaVuSans-69" x="297.697266"/>
       <use xlink:href="#DejaVuSans-6e" x="325.480469"/>
       <use xlink:href="#DejaVuSans-69" x="388.859375"/>
       <use xlink:href="#DejaVuSans-61" x="416.642578"/>
       <use xlink:href="#DejaVuSans-6e" x="477.921875"/>
      </g>
     </g>
    </g>
    <g id="xtick_4">
     <g id="line2d_4">
      <g>
       <use xlink:href="#m6fa6c340c9" x="233.5875" y="245.836875" style="stroke: #000000; stroke-width: 0.8"/>
      </g>
     </g>
     <g id="text_4">
      <!-- Israelis -->
      <g transform="translate(217.784492 298.355769) rotate(-45) scale(0.15 -0.15)">
       <use xlink:href="#DejaVuSans-49"/>
       <use xlink:href="#DejaVuSans-73" x="29.492188"/>
       <use xlink:href="#DejaVuSans-72" x="81.591797"/>
       <use xlink:href="#DejaVuSans-61" x="122.705078"/>
       <use xlink:href="#DejaVuSans-65" x="183.984375"/>
       <use xlink:href="#DejaVuSans-6c" x="245.507812"/>
       <use xlink:href="#DejaVuSans-69" x="273.291016"/>
       <use xlink:href="#DejaVuSans-73" x="301.074219"/>
      </g>
     </g>
    </g>
    <g id="xtick_5">
     <g id="line2d_5">
      <g>
       <use xlink:href="#m6fa6c340c9" x="278.346858" y="245.836875" style="stroke: #000000; stroke-width: 0.8"/>
      </g>
     </g>
     <g id="text_5">
      <!-- Palestine -->
      <g transform="translate(257.388876 308.665718) rotate(-45) scale(0.15 -0.15)">
       <use xlink:href="#DejaVuSans-50"/>
       <use xlink:href="#DejaVuSans-61" x="55.802734"/>
       <use xlink:href="#DejaVuSans-6c" x="117.082031"/>
       <use xlink:href="#DejaVuSans-65" x="144.865234"/>
       <use xlink:href="#DejaVuSans-73" x="206.388672"/>
       <use xlink:href="#DejaVuSans-74" x="258.488281"/>
       <use xlink:href="#DejaVuSans-69" x="297.697266"/>
       <use xlink:href="#DejaVuSans-6e" x="325.480469"/>
       <use xlink:href="#DejaVuSans-65" x="388.859375"/>
      </g>
     </g>
    </g>
    <g id="xtick_6">
     <g id="line2d_6">
      <g>
       <use xlink:href="#m6fa6c340c9" x="323.106217" y="245.836875" style="stroke: #000000; stroke-width: 0.8"/>
      </g>
     </g>
     <g id="text_6">
      <!-- Israeli -->
      <g transform="translate(310.065897 292.830393) rotate(-45) scale(0.15 -0.15)">
       <use xlink:href="#DejaVuSans-49"/>
       <use xlink:href="#DejaVuSans-73" x="29.492188"/>
       <use xlink:href="#DejaVuSans-72" x="81.591797"/>
       <use xlink:href="#DejaVuSans-61" x="122.705078"/>
       <use xlink:href="#DejaVuSans-65" x="183.984375"/>
       <use xlink:href="#DejaVuSans-6c" x="245.507812"/>
       <use xlink:href="#DejaVuSans-69" x="273.291016"/>
      </g>
     </g>
    </g>
    <g id="xtick_7">
     <g id="line2d_7">
      <g>
       <use xlink:href="#m6fa6c340c9" x="367.865575" y="245.836875" style="stroke: #000000; stroke-width: 0.8"/>
      </g>
     </g>
     <g id="text_7">
      <!-- Jews -->
      <g transform="translate(358.864879 284.751145) rotate(-45) scale(0.15 -0.15)">
       <defs>
        <path id="DejaVuSans-4a" d="M 628 4666 
L 1259 4666 
L 1259 325 
Q 1259 -519 939 -900 
Q 619 -1281 -91 -1281 
L -331 -1281 
L -331 -750 
L -134 -750 
Q 284 -750 456 -515 
Q 628 -281 628 325 
L 628 4666 
z
" transform="scale(0.015625)"/>
        <path id="DejaVuSans-77" d="M 269 3500 
L 844 3500 
L 1563 769 
L 2278 3500 
L 2956 3500 
L 3675 769 
L 4391 3500 
L 4966 3500 
L 4050 0 
L 3372 0 
L 2619 2869 
L 1863 0 
L 1184 0 
L 269 3500 
z
" transform="scale(0.015625)"/>
       </defs>
       <use xlink:href="#DejaVuSans-4a"/>
       <use xlink:href="#DejaVuSans-65" x="29.492188"/>
       <use xlink:href="#DejaVuSans-77" x="91.015625"/>
       <use xlink:href="#DejaVuSans-73" x="172.802734"/>
      </g>
     </g>
    </g>
    <g id="text_8">
     <!-- Entites -->
     <g transform="translate(198.95 345.235875) scale(0.2 -0.2)">
      <defs>
       <path id="DejaVuSans-45" d="M 628 4666 
L 3578 4666 
L 3578 4134 
L 1259 4134 
L 1259 2753 
L 3481 2753 
L 3481 2222 
L 1259 2222 
L 1259 531 
L 3634 531 
L 3634 0 
L 628 0 
L 628 4666 
z
" transform="scale(0.015625)"/>
      </defs>
      <use xlink:href="#DejaVuSans-45"/>
      <use xlink:href="#DejaVuSans-6e" x="63.183594"/>
      <use xlink:href="#DejaVuSans-74" x="126.5625"/>
      <use xlink:href="#DejaVuSans-69" x="165.771484"/>
      <use xlink:href="#DejaVuSans-74" x="193.554688"/>
      <use xlink:href="#DejaVuSans-65" x="232.763672"/>
      <use xlink:href="#DejaVuSans-73" x="294.287109"/>
     </g>
    </g>
   </g>
   <g id="matplotlib.axis_2">
    <g id="ytick_1">
     <g id="line2d_8">
      <defs>
       <path id="mb00f30fa37" d="M 0 0 
L -3.5 0 
" style="stroke: #000000; stroke-width: 0.8"/>
      </defs>
      <g>
       <use xlink:href="#mb00f30fa37" x="66.1875" y="245.836875" style="stroke: #000000; stroke-width: 0.8"/>
      </g>
     </g>
     <g id="text_9">
      <!-- 0 -->
      <g transform="translate(49.64375 251.535703) scale(0.15 -0.15)">
       <defs>
        <path id="DejaVuSans-30" d="M 2034 4250 
Q 1547 4250 1301 3770 
Q 1056 3291 1056 2328 
Q 1056 1369 1301 889 
Q 1547 409 2034 409 
Q 2525 409 2770 889 
Q 3016 1369 3016 2328 
Q 3016 3291 2770 3770 
Q 2525 4250 2034 4250 
z
M 2034 4750 
Q 2819 4750 3233 4129 
Q 3647 3509 3647 2328 
Q 3647 1150 3233 529 
Q 2819 -91 2034 -91 
Q 1250 -91 836 529 
Q 422 1150 422 2328 
Q 422 3509 836 4129 
Q 1250 4750 2034 4750 
z
" transform="scale(0.015625)"/>
       </defs>
       <use xlink:href="#DejaVuSans-30"/>
      </g>
     </g>
    </g>
    <g id="ytick_2">
     <g id="line2d_9">
      <g>
       <use xlink:href="#mb00f30fa37" x="66.1875" y="218.408304" style="stroke: #000000; stroke-width: 0.8"/>
      </g>
     </g>
     <g id="text_10">
      <!-- 20 -->
      <g transform="translate(40.1 224.107132) scale(0.15 -0.15)">
       <defs>
        <path id="DejaVuSans-32" d="M 1228 531 
L 3431 531 
L 3431 0 
L 469 0 
L 469 531 
Q 828 903 1448 1529 
Q 2069 2156 2228 2338 
Q 2531 2678 2651 2914 
Q 2772 3150 2772 3378 
Q 2772 3750 2511 3984 
Q 2250 4219 1831 4219 
Q 1534 4219 1204 4116 
Q 875 4013 500 3803 
L 500 4441 
Q 881 4594 1212 4672 
Q 1544 4750 1819 4750 
Q 2544 4750 2975 4387 
Q 3406 4025 3406 3419 
Q 3406 3131 3298 2873 
Q 3191 2616 2906 2266 
Q 2828 2175 2409 1742 
Q 1991 1309 1228 531 
z
" transform="scale(0.015625)"/>
       </defs>
       <use xlink:href="#DejaVuSans-32"/>
       <use xlink:href="#DejaVuSans-30" x="63.623047"/>
      </g>
     </g>
    </g>
    <g id="ytick_3">
     <g id="line2d_10">
      <g>
       <use xlink:href="#mb00f30fa37" x="66.1875" y="190.979732" style="stroke: #000000; stroke-width: 0.8"/>
      </g>
     </g>
     <g id="text_11">
      <!-- 40 -->
      <g transform="translate(40.1 196.67856) scale(0.15 -0.15)">
       <defs>
        <path id="DejaVuSans-34" d="M 2419 4116 
L 825 1625 
L 2419 1625 
L 2419 4116 
z
M 2253 4666 
L 3047 4666 
L 3047 1625 
L 3713 1625 
L 3713 1100 
L 3047 1100 
L 3047 0 
L 2419 0 
L 2419 1100 
L 313 1100 
L 313 1709 
L 2253 4666 
z
" transform="scale(0.015625)"/>
       </defs>
       <use xlink:href="#DejaVuSans-34"/>
       <use xlink:href="#DejaVuSans-30" x="63.623047"/>
      </g>
     </g>
    </g>
    <g id="ytick_4">
     <g id="line2d_11">
      <g>
       <use xlink:href="#mb00f30fa37" x="66.1875" y="163.551161" style="stroke: #000000; stroke-width: 0.8"/>
      </g>
     </g>
     <g id="text_12">
      <!-- 60 -->
      <g transform="translate(40.1 169.249989) scale(0.15 -0.15)">
       <defs>
        <path id="DejaVuSans-36" d="M 2113 2584 
Q 1688 2584 1439 2293 
Q 1191 2003 1191 1497 
Q 1191 994 1439 701 
Q 1688 409 2113 409 
Q 2538 409 2786 701 
Q 3034 994 3034 1497 
Q 3034 2003 2786 2293 
Q 2538 2584 2113 2584 
z
M 3366 4563 
L 3366 3988 
Q 3128 4100 2886 4159 
Q 2644 4219 2406 4219 
Q 1781 4219 1451 3797 
Q 1122 3375 1075 2522 
Q 1259 2794 1537 2939 
Q 1816 3084 2150 3084 
Q 2853 3084 3261 2657 
Q 3669 2231 3669 1497 
Q 3669 778 3244 343 
Q 2819 -91 2113 -91 
Q 1303 -91 875 529 
Q 447 1150 447 2328 
Q 447 3434 972 4092 
Q 1497 4750 2381 4750 
Q 2619 4750 2861 4703 
Q 3103 4656 3366 4563 
z
" transform="scale(0.015625)"/>
       </defs>
       <use xlink:href="#DejaVuSans-36"/>
       <use xlink:href="#DejaVuSans-30" x="63.623047"/>
      </g>
     </g>
    </g>
    <g id="ytick_5">
     <g id="line2d_12">
      <g>
       <use xlink:href="#mb00f30fa37" x="66.1875" y="136.122589" style="stroke: #000000; stroke-width: 0.8"/>
      </g>
     </g>
     <g id="text_13">
      <!-- 80 -->
      <g transform="translate(40.1 141.821417) scale(0.15 -0.15)">
       <defs>
        <path id="DejaVuSans-38" d="M 2034 2216 
Q 1584 2216 1326 1975 
Q 1069 1734 1069 1313 
Q 1069 891 1326 650 
Q 1584 409 2034 409 
Q 2484 409 2743 651 
Q 3003 894 3003 1313 
Q 3003 1734 2745 1975 
Q 2488 2216 2034 2216 
z
M 1403 2484 
Q 997 2584 770 2862 
Q 544 3141 544 3541 
Q 544 4100 942 4425 
Q 1341 4750 2034 4750 
Q 2731 4750 3128 4425 
Q 3525 4100 3525 3541 
Q 3525 3141 3298 2862 
Q 3072 2584 2669 2484 
Q 3125 2378 3379 2068 
Q 3634 1759 3634 1313 
Q 3634 634 3220 271 
Q 2806 -91 2034 -91 
Q 1263 -91 848 271 
Q 434 634 434 1313 
Q 434 1759 690 2068 
Q 947 2378 1403 2484 
z
M 1172 3481 
Q 1172 3119 1398 2916 
Q 1625 2713 2034 2713 
Q 2441 2713 2670 2916 
Q 2900 3119 2900 3481 
Q 2900 3844 2670 4047 
Q 2441 4250 2034 4250 
Q 1625 4250 1398 4047 
Q 1172 3844 1172 3481 
z
" transform="scale(0.015625)"/>
       </defs>
       <use xlink:href="#DejaVuSans-38"/>
       <use xlink:href="#DejaVuSans-30" x="63.623047"/>
      </g>
     </g>
    </g>
    <g id="ytick_6">
     <g id="line2d_13">
      <g>
       <use xlink:href="#mb00f30fa37" x="66.1875" y="108.694018" style="stroke: #000000; stroke-width: 0.8"/>
      </g>
     </g>
     <g id="text_14">
      <!-- 100 -->
      <g transform="translate(30.55625 114.392846) scale(0.15 -0.15)">
       <defs>
        <path id="DejaVuSans-31" d="M 794 531 
L 1825 531 
L 1825 4091 
L 703 3866 
L 703 4441 
L 1819 4666 
L 2450 4666 
L 2450 531 
L 3481 531 
L 3481 0 
L 794 0 
L 794 531 
z
" transform="scale(0.015625)"/>
       </defs>
       <use xlink:href="#DejaVuSans-31"/>
       <use xlink:href="#DejaVuSans-30" x="63.623047"/>
       <use xlink:href="#DejaVuSans-30" x="127.246094"/>
      </g>
     </g>
    </g>
    <g id="ytick_7">
     <g id="line2d_14">
      <g>
       <use xlink:href="#mb00f30fa37" x="66.1875" y="81.265446" style="stroke: #000000; stroke-width: 0.8"/>
      </g>
     </g>
     <g id="text_15">
      <!-- 120 -->
      <g transform="translate(30.55625 86.964275) scale(0.15 -0.15)">
       <use xlink:href="#DejaVuSans-31"/>
       <use xlink:href="#DejaVuSans-32" x="63.623047"/>
       <use xlink:href="#DejaVuSans-30" x="127.246094"/>
      </g>
     </g>
    </g>
    <g id="ytick_8">
     <g id="line2d_15">
      <g>
       <use xlink:href="#mb00f30fa37" x="66.1875" y="53.836875" style="stroke: #000000; stroke-width: 0.8"/>
      </g>
     </g>
     <g id="text_16">
      <!-- 140 -->
      <g transform="translate(30.55625 59.535703) scale(0.15 -0.15)">
       <use xlink:href="#DejaVuSans-31"/>
       <use xlink:href="#DejaVuSans-34" x="63.623047"/>
       <use xlink:href="#DejaVuSans-30" x="127.246094"/>
      </g>
     </g>
    </g>
    <g id="text_17">
     <!-- Sum -->
     <g transform="translate(22.396875 159.543437) rotate(-90) scale(0.2 -0.2)">
      <defs>
       <path id="DejaVuSans-53" d="M 3425 4513 
L 3425 3897 
Q 3066 4069 2747 4153 
Q 2428 4238 2131 4238 
Q 1616 4238 1336 4038 
Q 1056 3838 1056 3469 
Q 1056 3159 1242 3001 
Q 1428 2844 1947 2747 
L 2328 2669 
Q 3034 2534 3370 2195 
Q 3706 1856 3706 1288 
Q 3706 609 3251 259 
Q 2797 -91 1919 -91 
Q 1588 -91 1214 -16 
Q 841 59 441 206 
L 441 856 
Q 825 641 1194 531 
Q 1563 422 1919 422 
Q 2459 422 2753 634 
Q 3047 847 3047 1241 
Q 3047 1584 2836 1778 
Q 2625 1972 2144 2069 
L 1759 2144 
Q 1053 2284 737 2584 
Q 422 2884 422 3419 
Q 422 4038 858 4394 
Q 1294 4750 2059 4750 
Q 2388 4750 2728 4690 
Q 3069 4631 3425 4513 
z
" transform="scale(0.015625)"/>
       <path id="DejaVuSans-75" d="M 544 1381 
L 544 3500 
L 1119 3500 
L 1119 1403 
Q 1119 906 1312 657 
Q 1506 409 1894 409 
Q 2359 409 2629 706 
Q 2900 1003 2900 1516 
L 2900 3500 
L 3475 3500 
L 3475 0 
L 2900 0 
L 2900 538 
Q 2691 219 2414 64 
Q 2138 -91 1772 -91 
Q 1169 -91 856 284 
Q 544 659 544 1381 
z
M 1991 3584 
L 1991 3584 
z
" transform="scale(0.015625)"/>
       <path id="DejaVuSans-6d" d="M 3328 2828 
Q 3544 3216 3844 3400 
Q 4144 3584 4550 3584 
Q 5097 3584 5394 3201 
Q 5691 2819 5691 2113 
L 5691 0 
L 5113 0 
L 5113 2094 
Q 5113 2597 4934 2840 
Q 4756 3084 4391 3084 
Q 3944 3084 3684 2787 
Q 3425 2491 3425 1978 
L 3425 0 
L 2847 0 
L 2847 2094 
Q 2847 2600 2669 2842 
Q 2491 3084 2119 3084 
Q 1678 3084 1418 2786 
Q 1159 2488 1159 1978 
L 1159 0 
L 581 0 
L 581 3500 
L 1159 3500 
L 1159 2956 
Q 1356 3278 1631 3431 
Q 1906 3584 2284 3584 
Q 2666 3584 2933 3390 
Q 3200 3197 3328 2828 
z
" transform="scale(0.015625)"/>
      </defs>
      <use xlink:href="#DejaVuSans-53"/>
      <use xlink:href="#DejaVuSans-75" x="63.476562"/>
      <use xlink:href="#DejaVuSans-6d" x="126.855469"/>
     </g>
    </g>
   </g>
   <g id="patch_10">
    <path d="M 66.1875 245.836875 
L 66.1875 28.396875 
" style="fill: none; stroke: #000000; stroke-width: 0.8; stroke-linejoin: miter; stroke-linecap: square"/>
   </g>
   <g id="patch_11">
    <path d="M 400.9875 245.836875 
L 400.9875 28.396875 
" style="fill: none; stroke: #000000; stroke-width: 0.8; stroke-linejoin: miter; stroke-linecap: square"/>
   </g>
   <g id="patch_12">
    <path d="M 66.1875 245.836875 
L 400.9875 245.836875 
" style="fill: none; stroke: #000000; stroke-width: 0.8; stroke-linejoin: miter; stroke-linecap: square"/>
   </g>
   <g id="patch_13">
    <path d="M 66.1875 28.396875 
L 400.9875 28.396875 
" style="fill: none; stroke: #000000; stroke-width: 0.8; stroke-linejoin: miter; stroke-linecap: square"/>
   </g>
   <g id="text_18">
    <!-- I/P Entites Sum Non Democrat -->
    <g transform="translate(82.154687 22.396875) scale(0.2 -0.2)">
     <defs>
      <path id="DejaVuSans-2f" d="M 1625 4666 
L 2156 4666 
L 531 -594 
L 0 -594 
L 1625 4666 
z
" transform="scale(0.015625)"/>
      <path id="DejaVuSans-20" transform="scale(0.015625)"/>
      <path id="DejaVuSans-4e" d="M 628 4666 
L 1478 4666 
L 3547 763 
L 3547 4666 
L 4159 4666 
L 4159 0 
L 3309 0 
L 1241 3903 
L 1241 0 
L 628 0 
L 628 4666 
z
" transform="scale(0.015625)"/>
      <path id="DejaVuSans-6f" d="M 1959 3097 
Q 1497 3097 1228 2736 
Q 959 2375 959 1747 
Q 959 1119 1226 758 
Q 1494 397 1959 397 
Q 2419 397 2687 759 
Q 2956 1122 2956 1747 
Q 2956 2369 2687 2733 
Q 2419 3097 1959 3097 
z
M 1959 3584 
Q 2709 3584 3137 3096 
Q 3566 2609 3566 1747 
Q 3566 888 3137 398 
Q 2709 -91 1959 -91 
Q 1206 -91 779 398 
Q 353 888 353 1747 
Q 353 2609 779 3096 
Q 1206 3584 1959 3584 
z
" transform="scale(0.015625)"/>
      <path id="DejaVuSans-44" d="M 1259 4147 
L 1259 519 
L 2022 519 
Q 2988 519 3436 956 
Q 3884 1394 3884 2338 
Q 3884 3275 3436 3711 
Q 2988 4147 2022 4147 
L 1259 4147 
z
M 628 4666 
L 1925 4666 
Q 3281 4666 3915 4102 
Q 4550 3538 4550 2338 
Q 4550 1131 3912 565 
Q 3275 0 1925 0 
L 628 0 
L 628 4666 
z
" transform="scale(0.015625)"/>
      <path id="DejaVuSans-63" d="M 3122 3366 
L 3122 2828 
Q 2878 2963 2633 3030 
Q 2388 3097 2138 3097 
Q 1578 3097 1268 2742 
Q 959 2388 959 1747 
Q 959 1106 1268 751 
Q 1578 397 2138 397 
Q 2388 397 2633 464 
Q 2878 531 3122 666 
L 3122 134 
Q 2881 22 2623 -34 
Q 2366 -91 2075 -91 
Q 1284 -91 818 406 
Q 353 903 353 1747 
Q 353 2603 823 3093 
Q 1294 3584 2113 3584 
Q 2378 3584 2631 3529 
Q 2884 3475 3122 3366 
z
" transform="scale(0.015625)"/>
     </defs>
     <use xlink:href="#DejaVuSans-49"/>
     <use xlink:href="#DejaVuSans-2f" x="29.492188"/>
     <use xlink:href="#DejaVuSans-50" x="63.183594"/>
     <use xlink:href="#DejaVuSans-20" x="123.486328"/>
     <use xlink:href="#DejaVuSans-45" x="155.273438"/>
     <use xlink:href="#DejaVuSans-6e" x="218.457031"/>
     <use xlink:href="#DejaVuSans-74" x="281.835938"/>
     <use xlink:href="#DejaVuSans-69" x="321.044922"/>
     <use xlink:href="#DejaVuSans-74" x="348.828125"/>
     <use xlink:href="#DejaVuSans-65" x="388.037109"/>
     <use xlink:href="#DejaVuSans-73" x="449.560547"/>
     <use xlink:href="#DejaVuSans-20" x="501.660156"/>
     <use xlink:href="#DejaVuSans-53" x="533.447266"/>
     <use xlink:href="#DejaVuSans-75" x="596.923828"/>
     <use xlink:href="#DejaVuSans-6d" x="660.302734"/>
     <use xlink:href="#DejaVuSans-20" x="757.714844"/>
     <use xlink:href="#DejaVuSans-4e" x="789.501953"/>
     <use xlink:href="#DejaVuSans-6f" x="864.306641"/>
     <use xlink:href="#DejaVuSans-6e" x="925.488281"/>
     <use xlink:href="#DejaVuSans-20" x="988.867188"/>
     <use xlink:href="#DejaVuSans-44" x="1020.654297"/>
     <use xlink:href="#DejaVuSans-65" x="1097.65625"/>
     <use xlink:href="#DejaVuSans-6d" x="1159.179688"/>
     <use xlink:href="#DejaVuSans-6f" x="1256.591797"/>
     <use xlink:href="#DejaVuSans-63" x="1317.773438"/>
     <use xlink:href="#DejaVuSans-72" x="1372.753906"/>
     <use xlink:href="#DejaVuSans-61" x="1413.867188"/>
     <use xlink:href="#DejaVuSans-74" x="1475.146484"/>
    </g>
   </g>
  </g>
  <g id="text_19">
   <!-- The bar chart displays the frequency of specific entities -->
   <g transform="translate(47.121875 369.898156) scale(0.13 -0.13)">
    <defs>
     <path id="DejaVuSans-54" d="M -19 4666 
L 3928 4666 
L 3928 4134 
L 2272 4134 
L 2272 0 
L 1638 0 
L 1638 4134 
L -19 4134 
L -19 4666 
z
" transform="scale(0.015625)"/>
     <path id="DejaVuSans-68" d="M 3513 2113 
L 3513 0 
L 2938 0 
L 2938 2094 
Q 2938 2591 2744 2837 
Q 2550 3084 2163 3084 
Q 1697 3084 1428 2787 
Q 1159 2491 1159 1978 
L 1159 0 
L 581 0 
L 581 4863 
L 1159 4863 
L 1159 2956 
Q 1366 3272 1645 3428 
Q 1925 3584 2291 3584 
Q 2894 3584 3203 3211 
Q 3513 2838 3513 2113 
z
" transform="scale(0.015625)"/>
     <path id="DejaVuSans-62" d="M 3116 1747 
Q 3116 2381 2855 2742 
Q 2594 3103 2138 3103 
Q 1681 3103 1420 2742 
Q 1159 2381 1159 1747 
Q 1159 1113 1420 752 
Q 1681 391 2138 391 
Q 2594 391 2855 752 
Q 3116 1113 3116 1747 
z
M 1159 2969 
Q 1341 3281 1617 3432 
Q 1894 3584 2278 3584 
Q 2916 3584 3314 3078 
Q 3713 2572 3713 1747 
Q 3713 922 3314 415 
Q 2916 -91 2278 -91 
Q 1894 -91 1617 61 
Q 1341 213 1159 525 
L 1159 0 
L 581 0 
L 581 4863 
L 1159 4863 
L 1159 2969 
z
" transform="scale(0.015625)"/>
     <path id="DejaVuSans-64" d="M 2906 2969 
L 2906 4863 
L 3481 4863 
L 3481 0 
L 2906 0 
L 2906 525 
Q 2725 213 2448 61 
Q 2172 -91 1784 -91 
Q 1150 -91 751 415 
Q 353 922 353 1747 
Q 353 2572 751 3078 
Q 1150 3584 1784 3584 
Q 2172 3584 2448 3432 
Q 2725 3281 2906 2969 
z
M 947 1747 
Q 947 1113 1208 752 
Q 1469 391 1925 391 
Q 2381 391 2643 752 
Q 2906 1113 2906 1747 
Q 2906 2381 2643 2742 
Q 2381 3103 1925 3103 
Q 1469 3103 1208 2742 
Q 947 2381 947 1747 
z
" transform="scale(0.015625)"/>
     <path id="DejaVuSans-70" d="M 1159 525 
L 1159 -1331 
L 581 -1331 
L 581 3500 
L 1159 3500 
L 1159 2969 
Q 1341 3281 1617 3432 
Q 1894 3584 2278 3584 
Q 2916 3584 3314 3078 
Q 3713 2572 3713 1747 
Q 3713 922 3314 415 
Q 2916 -91 2278 -91 
Q 1894 -91 1617 61 
Q 1341 213 1159 525 
z
M 3116 1747 
Q 3116 2381 2855 2742 
Q 2594 3103 2138 3103 
Q 1681 3103 1420 2742 
Q 1159 2381 1159 1747 
Q 1159 1113 1420 752 
Q 1681 391 2138 391 
Q 2594 391 2855 752 
Q 3116 1113 3116 1747 
z
" transform="scale(0.015625)"/>
     <path id="DejaVuSans-79" d="M 2059 -325 
Q 1816 -950 1584 -1140 
Q 1353 -1331 966 -1331 
L 506 -1331 
L 506 -850 
L 844 -850 
Q 1081 -850 1212 -737 
Q 1344 -625 1503 -206 
L 1606 56 
L 191 3500 
L 800 3500 
L 1894 763 
L 2988 3500 
L 3597 3500 
L 2059 -325 
z
" transform="scale(0.015625)"/>
     <path id="DejaVuSans-66" d="M 2375 4863 
L 2375 4384 
L 1825 4384 
Q 1516 4384 1395 4259 
Q 1275 4134 1275 3809 
L 1275 3500 
L 2222 3500 
L 2222 3053 
L 1275 3053 
L 1275 0 
L 697 0 
L 697 3053 
L 147 3053 
L 147 3500 
L 697 3500 
L 697 3744 
Q 697 4328 969 4595 
Q 1241 4863 1831 4863 
L 2375 4863 
z
" transform="scale(0.015625)"/>
     <path id="DejaVuSans-71" d="M 947 1747 
Q 947 1113 1208 752 
Q 1469 391 1925 391 
Q 2381 391 2643 752 
Q 2906 1113 2906 1747 
Q 2906 2381 2643 2742 
Q 2381 3103 1925 3103 
Q 1469 3103 1208 2742 
Q 947 2381 947 1747 
z
M 2906 525 
Q 2725 213 2448 61 
Q 2172 -91 1784 -91 
Q 1150 -91 751 415 
Q 353 922 353 1747 
Q 353 2572 751 3078 
Q 1150 3584 1784 3584 
Q 2172 3584 2448 3432 
Q 2725 3281 2906 2969 
L 2906 3500 
L 3481 3500 
L 3481 -1331 
L 2906 -1331 
L 2906 525 
z
" transform="scale(0.015625)"/>
    </defs>
    <use xlink:href="#DejaVuSans-54"/>
    <use xlink:href="#DejaVuSans-68" x="61.083984"/>
    <use xlink:href="#DejaVuSans-65" x="124.462891"/>
    <use xlink:href="#DejaVuSans-20" x="185.986328"/>
    <use xlink:href="#DejaVuSans-62" x="217.773438"/>
    <use xlink:href="#DejaVuSans-61" x="281.25"/>
    <use xlink:href="#DejaVuSans-72" x="342.529297"/>
    <use xlink:href="#DejaVuSans-20" x="383.642578"/>
    <use xlink:href="#DejaVuSans-63" x="415.429688"/>
    <use xlink:href="#DejaVuSans-68" x="470.410156"/>
    <use xlink:href="#DejaVuSans-61" x="533.789062"/>
    <use xlink:href="#DejaVuSans-72" x="595.068359"/>
    <use xlink:href="#DejaVuSans-74" x="636.181641"/>
    <use xlink:href="#DejaVuSans-20" x="675.390625"/>
    <use xlink:href="#DejaVuSans-64" x="707.177734"/>
    <use xlink:href="#DejaVuSans-69" x="770.654297"/>
    <use xlink:href="#DejaVuSans-73" x="798.4375"/>
    <use xlink:href="#DejaVuSans-70" x="850.537109"/>
    <use xlink:href="#DejaVuSans-6c" x="914.013672"/>
    <use xlink:href="#DejaVuSans-61" x="941.796875"/>
    <use xlink:href="#DejaVuSans-79" x="1003.076172"/>
    <use xlink:href="#DejaVuSans-73" x="1062.255859"/>
    <use xlink:href="#DejaVuSans-20" x="1114.355469"/>
    <use xlink:href="#DejaVuSans-74" x="1146.142578"/>
    <use xlink:href="#DejaVuSans-68" x="1185.351562"/>
    <use xlink:href="#DejaVuSans-65" x="1248.730469"/>
    <use xlink:href="#DejaVuSans-20" x="1310.253906"/>
    <use xlink:href="#DejaVuSans-66" x="1342.041016"/>
    <use xlink:href="#DejaVuSans-72" x="1377.246094"/>
    <use xlink:href="#DejaVuSans-65" x="1416.109375"/>
    <use xlink:href="#DejaVuSans-71" x="1477.632812"/>
    <use xlink:href="#DejaVuSans-75" x="1541.109375"/>
    <use xlink:href="#DejaVuSans-65" x="1604.488281"/>
    <use xlink:href="#DejaVuSans-6e" x="1666.011719"/>
    <use xlink:href="#DejaVuSans-63" x="1729.390625"/>
    <use xlink:href="#DejaVuSans-79" x="1784.371094"/>
    <use xlink:href="#DejaVuSans-20" x="1843.550781"/>
    <use xlink:href="#DejaVuSans-6f" x="1875.337891"/>
    <use xlink:href="#DejaVuSans-66" x="1936.519531"/>
    <use xlink:href="#DejaVuSans-20" x="1971.724609"/>
    <use xlink:href="#DejaVuSans-73" x="2003.511719"/>
    <use xlink:href="#DejaVuSans-70" x="2055.611328"/>
    <use xlink:href="#DejaVuSans-65" x="2119.087891"/>
    <use xlink:href="#DejaVuSans-63" x="2180.611328"/>
    <use xlink:href="#DejaVuSans-69" x="2235.591797"/>
    <use xlink:href="#DejaVuSans-66" x="2263.375"/>
    <use xlink:href="#DejaVuSans-69" x="2298.580078"/>
    <use xlink:href="#DejaVuSans-63" x="2326.363281"/>
    <use xlink:href="#DejaVuSans-20" x="2381.34375"/>
    <use xlink:href="#DejaVuSans-65" x="2413.130859"/>
    <use xlink:href="#DejaVuSans-6e" x="2474.654297"/>
    <use xlink:href="#DejaVuSans-74" x="2538.033203"/>
    <use xlink:href="#DejaVuSans-69" x="2577.242188"/>
    <use xlink:href="#DejaVuSans-74" x="2605.025391"/>
    <use xlink:href="#DejaVuSans-69" x="2644.234375"/>
    <use xlink:href="#DejaVuSans-65" x="2672.017578"/>
    <use xlink:href="#DejaVuSans-73" x="2733.541016"/>
   </g>
   <!-- mentioned in all Republican President Speeches since US -->
   <g transform="translate(41.880234 384.455312) scale(0.13 -0.13)">
    <defs>
     <path id="DejaVuSans-52" d="M 2841 2188 
Q 3044 2119 3236 1894 
Q 3428 1669 3622 1275 
L 4263 0 
L 3584 0 
L 2988 1197 
Q 2756 1666 2539 1819 
Q 2322 1972 1947 1972 
L 1259 1972 
L 1259 0 
L 628 0 
L 628 4666 
L 2053 4666 
Q 2853 4666 3247 4331 
Q 3641 3997 3641 3322 
Q 3641 2881 3436 2590 
Q 3231 2300 2841 2188 
z
M 1259 4147 
L 1259 2491 
L 2053 2491 
Q 2509 2491 2742 2702 
Q 2975 2913 2975 3322 
Q 2975 3731 2742 3939 
Q 2509 4147 2053 4147 
L 1259 4147 
z
" transform="scale(0.015625)"/>
     <path id="DejaVuSans-55" d="M 556 4666 
L 1191 4666 
L 1191 1831 
Q 1191 1081 1462 751 
Q 1734 422 2344 422 
Q 2950 422 3222 751 
Q 3494 1081 3494 1831 
L 3494 4666 
L 4128 4666 
L 4128 1753 
Q 4128 841 3676 375 
Q 3225 -91 2344 -91 
Q 1459 -91 1007 375 
Q 556 841 556 1753 
L 556 4666 
z
" transform="scale(0.015625)"/>
    </defs>
    <use xlink:href="#DejaVuSans-6d"/>
    <use xlink:href="#DejaVuSans-65" x="97.412109"/>
    <use xlink:href="#DejaVuSans-6e" x="158.935547"/>
    <use xlink:href="#DejaVuSans-74" x="222.314453"/>
    <use xlink:href="#DejaVuSans-69" x="261.523438"/>
    <use xlink:href="#DejaVuSans-6f" x="289.306641"/>
    <use xlink:href="#DejaVuSans-6e" x="350.488281"/>
    <use xlink:href="#DejaVuSans-65" x="413.867188"/>
    <use xlink:href="#DejaVuSans-64" x="475.390625"/>
    <use xlink:href="#DejaVuSans-20" x="538.867188"/>
    <use xlink:href="#DejaVuSans-69" x="570.654297"/>
    <use xlink:href="#DejaVuSans-6e" x="598.4375"/>
    <use xlink:href="#DejaVuSans-20" x="661.816406"/>
    <use xlink:href="#DejaVuSans-61" x="693.603516"/>
    <use xlink:href="#DejaVuSans-6c" x="754.882812"/>
    <use xlink:href="#DejaVuSans-6c" x="782.666016"/>
    <use xlink:href="#DejaVuSans-20" x="810.449219"/>
    <use xlink:href="#DejaVuSans-52" x="842.236328"/>
    <use xlink:href="#DejaVuSans-65" x="907.21875"/>
    <use xlink:href="#DejaVuSans-70" x="968.742188"/>
    <use xlink:href="#DejaVuSans-75" x="1032.21875"/>
    <use xlink:href="#DejaVuSans-62" x="1095.597656"/>
    <use xlink:href="#DejaVuSans-6c" x="1159.074219"/>
    <use xlink:href="#DejaVuSans-69" x="1186.857422"/>
    <use xlink:href="#DejaVuSans-63" x="1214.640625"/>
    <use xlink:href="#DejaVuSans-61" x="1269.621094"/>
    <use xlink:href="#DejaVuSans-6e" x="1330.900391"/>
    <use xlink:href="#DejaVuSans-20" x="1394.279297"/>
    <use xlink:href="#DejaVuSans-50" x="1426.066406"/>
    <use xlink:href="#DejaVuSans-72" x="1484.619141"/>
    <use xlink:href="#DejaVuSans-65" x="1523.482422"/>
    <use xlink:href="#DejaVuSans-73" x="1585.005859"/>
    <use xlink:href="#DejaVuSans-69" x="1637.105469"/>
    <use xlink:href="#DejaVuSans-64" x="1664.888672"/>
    <use xlink:href="#DejaVuSans-65" x="1728.365234"/>
    <use xlink:href="#DejaVuSans-6e" x="1789.888672"/>
    <use xlink:href="#DejaVuSans-74" x="1853.267578"/>
    <use xlink:href="#DejaVuSans-20" x="1892.476562"/>
    <use xlink:href="#DejaVuSans-53" x="1924.263672"/>
    <use xlink:href="#DejaVuSans-70" x="1987.740234"/>
    <use xlink:href="#DejaVuSans-65" x="2051.216797"/>
    <use xlink:href="#DejaVuSans-65" x="2112.740234"/>
    <use xlink:href="#DejaVuSans-63" x="2174.263672"/>
    <use xlink:href="#DejaVuSans-68" x="2229.244141"/>
    <use xlink:href="#DejaVuSans-65" x="2292.623047"/>
    <use xlink:href="#DejaVuSans-73" x="2354.146484"/>
    <use xlink:href="#DejaVuSans-20" x="2406.246094"/>
    <use xlink:href="#DejaVuSans-73" x="2438.033203"/>
    <use xlink:href="#DejaVuSans-69" x="2490.132812"/>
    <use xlink:href="#DejaVuSans-6e" x="2517.916016"/>
    <use xlink:href="#DejaVuSans-63" x="2581.294922"/>
    <use xlink:href="#DejaVuSans-65" x="2636.275391"/>
    <use xlink:href="#DejaVuSans-20" x="2697.798828"/>
    <use xlink:href="#DejaVuSans-55" x="2729.585938"/>
    <use xlink:href="#DejaVuSans-53" x="2802.779297"/>
   </g>
   <!-- presidency specific to Isreal and Palestinian Involvement. -->
   <g transform="translate(41.58875 399.012469) scale(0.13 -0.13)">
    <defs>
     <path id="DejaVuSans-76" d="M 191 3500 
L 800 3500 
L 1894 563 
L 2988 3500 
L 3597 3500 
L 2284 0 
L 1503 0 
L 191 3500 
z
" transform="scale(0.015625)"/>
     <path id="DejaVuSans-2e" d="M 684 794 
L 1344 794 
L 1344 0 
L 684 0 
L 684 794 
z
" transform="scale(0.015625)"/>
    </defs>
    <use xlink:href="#DejaVuSans-70"/>
    <use xlink:href="#DejaVuSans-72" x="63.476562"/>
    <use xlink:href="#DejaVuSans-65" x="102.339844"/>
    <use xlink:href="#DejaVuSans-73" x="163.863281"/>
    <use xlink:href="#DejaVuSans-69" x="215.962891"/>
    <use xlink:href="#DejaVuSans-64" x="243.746094"/>
    <use xlink:href="#DejaVuSans-65" x="307.222656"/>
    <use xlink:href="#DejaVuSans-6e" x="368.746094"/>
    <use xlink:href="#DejaVuSans-63" x="432.125"/>
    <use xlink:href="#DejaVuSans-79" x="487.105469"/>
    <use xlink:href="#DejaVuSans-20" x="546.285156"/>
    <use xlink:href="#DejaVuSans-73" x="578.072266"/>
    <use xlink:href="#DejaVuSans-70" x="630.171875"/>
    <use xlink:href="#DejaVuSans-65" x="693.648438"/>
    <use xlink:href="#DejaVuSans-63" x="755.171875"/>
    <use xlink:href="#DejaVuSans-69" x="810.152344"/>
    <use xlink:href="#DejaVuSans-66" x="837.935547"/>
    <use xlink:href="#DejaVuSans-69" x="873.140625"/>
    <use xlink:href="#DejaVuSans-63" x="900.923828"/>
    <use xlink:href="#DejaVuSans-20" x="955.904297"/>
    <use xlink:href="#DejaVuSans-74" x="987.691406"/>
    <use xlink:href="#DejaVuSans-6f" x="1026.900391"/>
    <use xlink:href="#DejaVuSans-20" x="1088.082031"/>
    <use xlink:href="#DejaVuSans-49" x="1119.869141"/>
    <use xlink:href="#DejaVuSans-73" x="1149.361328"/>
    <use xlink:href="#DejaVuSans-72" x="1201.460938"/>
    <use xlink:href="#DejaVuSans-65" x="1240.324219"/>
    <use xlink:href="#DejaVuSans-61" x="1301.847656"/>
    <use xlink:href="#DejaVuSans-6c" x="1363.126953"/>
    <use xlink:href="#DejaVuSans-20" x="1390.910156"/>
    <use xlink:href="#DejaVuSans-61" x="1422.697266"/>
    <use xlink:href="#DejaVuSans-6e" x="1483.976562"/>
    <use xlink:href="#DejaVuSans-64" x="1547.355469"/>
    <use xlink:href="#DejaVuSans-20" x="1610.832031"/>
    <use xlink:href="#DejaVuSans-50" x="1642.619141"/>
    <use xlink:href="#DejaVuSans-61" x="1698.421875"/>
    <use xlink:href="#DejaVuSans-6c" x="1759.701172"/>
    <use xlink:href="#DejaVuSans-65" x="1787.484375"/>
    <use xlink:href="#DejaVuSans-73" x="1849.007812"/>
    <use xlink:href="#DejaVuSans-74" x="1901.107422"/>
    <use xlink:href="#DejaVuSans-69" x="1940.316406"/>
    <use xlink:href="#DejaVuSans-6e" x="1968.099609"/>
    <use xlink:href="#DejaVuSans-69" x="2031.478516"/>
    <use xlink:href="#DejaVuSans-61" x="2059.261719"/>
    <use xlink:href="#DejaVuSans-6e" x="2120.541016"/>
    <use xlink:href="#DejaVuSans-20" x="2183.919922"/>
    <use xlink:href="#DejaVuSans-49" x="2215.707031"/>
    <use xlink:href="#DejaVuSans-6e" x="2245.199219"/>
    <use xlink:href="#DejaVuSans-76" x="2308.578125"/>
    <use xlink:href="#DejaVuSans-6f" x="2367.757812"/>
    <use xlink:href="#DejaVuSans-6c" x="2428.939453"/>
    <use xlink:href="#DejaVuSans-76" x="2456.722656"/>
    <use xlink:href="#DejaVuSans-65" x="2515.902344"/>
    <use xlink:href="#DejaVuSans-6d" x="2577.425781"/>
    <use xlink:href="#DejaVuSans-65" x="2674.837891"/>
    <use xlink:href="#DejaVuSans-6e" x="2736.361328"/>
    <use xlink:href="#DejaVuSans-74" x="2799.740234"/>
    <use xlink:href="#DejaVuSans-2e" x="2838.949219"/>
   </g>
  </g>
 </g>
 <defs>
  <clipPath id="pd92a0b47ed">
   <rect x="66.1875" y="28.396875" width="334.8" height="217.44"/>
  </clipPath>
 </defs>
</svg>
